<?xml version="1.0" encoding="utf-8"?>
<!-- Generator: Adobe Adobe Illustrator 24.2.0, SVG Export Plug-In . SVG Version: 6.00 Build 0)  -->
<svg version="1.1" id="Layer_1" xmlns="http://www.w3.org/2000/svg" xmlns:xlink="http://www.w3.org/1999/xlink" x="0px" y="0px"
	 width="442px" height="450px" viewBox="0 0 442 450" style="enable-background:new 0 0 442 450;" xml:space="preserve">
<style type="text/css">
	.st0{fill:#135E8A;stroke:#000000;stroke-miterlimit:10;}
	.st1{fill:#FFFFFF;stroke:#000000;stroke-miterlimit:10;}
	.st2{fill:none;stroke:#000000;stroke-width:8;stroke-miterlimit:10;}
</style>
<circle class="st0" cx="218.89" cy="231.79" r="199"/>
<circle class="st1" cx="218.89" cy="231.79" r="165.61"/>
<g>
	<path d="M198.83,104.92h7.01V82.45h-5.62v-2.59c2.83-0.48,4.85-1.25,6.53-2.26h3.07v27.31h6.29v3.31h-17.28V104.92z"/>
	<path d="M220.81,105.78c9.12-8.93,14.4-14.59,14.4-19.54c0-3.5-1.92-5.95-5.81-5.95c-2.54,0-4.75,1.63-6.48,3.65l-2.26-2.16
		c2.54-2.88,5.28-4.75,9.22-4.75c5.66,0,9.22,3.6,9.22,8.98c0,5.95-5.38,11.47-12.82,19.06c1.68-0.14,3.55-0.24,5.14-0.24h9.17v3.41
		h-19.78V105.78z"/>
</g>
<g>
	<path d="M209.27,373.07c0-12.29,5.57-17.04,11.67-17.04c3.31,0,5.71,1.39,7.39,3.26l-2.21,2.5c-1.2-1.49-3.12-2.45-5.04-2.45
		c-4.27,0-7.92,3.36-8.06,13.11c1.92-2.4,4.66-3.94,7.15-3.94c5.33,0,8.74,3.17,8.74,9.46c0,5.86-4.13,9.84-9.07,9.84
		C213.83,387.81,209.27,382.91,209.27,373.07z M213.11,375.57c0.53,5.95,2.88,9.12,6.72,9.12c3.02,0,5.33-2.69,5.33-6.72
		c0-3.98-1.87-6.48-5.66-6.48C217.53,371.49,215.03,372.69,213.11,375.57z"/>
</g>
<g>
	<path d="M351.21,238.36l2.02-2.59c1.82,1.92,4.22,3.6,7.82,3.6c3.7,0,6.34-2.16,6.34-5.57c0-3.65-2.5-6.1-9.79-6.1v-3.02
		c6.48,0,8.69-2.5,8.69-5.71c0-2.93-2.02-4.8-5.28-4.8c-2.54,0-4.7,1.3-6.53,3.07l-2.11-2.5c2.35-2.21,5.18-3.84,8.78-3.84
		c5.33,0,9.17,2.83,9.17,7.78c0,3.7-2.21,6.05-5.52,7.3v0.19c3.7,0.86,6.62,3.55,6.62,7.78c0,5.42-4.51,8.74-10.13,8.74
		C356.4,242.68,353.28,240.62,351.21,238.36z"/>
</g>
<g>
	<path d="M69.74,239.47l2.21-2.5c1.25,1.44,3.12,2.4,5.04,2.4c4.32,0,7.87-3.31,8.06-13.01c-1.92,2.4-4.66,3.84-7.15,3.84
		c-5.28,0-8.69-3.17-8.69-9.46c0-5.86,4.13-9.84,9.02-9.84c6.05,0,10.61,4.9,10.61,14.74c0,12.29-5.57,17.04-11.71,17.04
		C73.86,242.68,71.42,241.29,69.74,239.47z M78.57,227.23c2.02,0,4.46-1.2,6.38-4.03c-0.48-5.95-2.83-9.12-6.72-9.12
		c-2.98,0-5.28,2.64-5.28,6.67C72.95,224.73,74.82,227.23,78.57,227.23z"/>
</g>
<line class="st2" x1="219.37" y1="117.22" x2="219.37" y2="231.8"/>
<line class="st2" x1="295.99" y1="231.8" x2="214.89" y2="231.79"/>
</svg>
