<?xml version="1.0" encoding="utf-8"?>
<!-- Generator: Adobe Adobe Illustrator 24.2.0, SVG Export Plug-In . SVG Version: 6.00 Build 0)  -->
<svg version="1.1" id="Layer_1" xmlns="http://www.w3.org/2000/svg" xmlns:xlink="http://www.w3.org/1999/xlink" x="0px" y="0px"
	 width="760px" height="600px" viewBox="0 0 760 600" style="enable-background:new 0 0 760 600;" xml:space="preserve">
<style type="text/css">
	.st0{fill:#FFFFFF;stroke:#000000;stroke-width:7;stroke-miterlimit:10;}
	.st1{stroke:#000000;stroke-width:6;stroke-miterlimit:10;}
</style>
<rect x="52.77" y="125.24" class="st0" width="439" height="439"/>
<line class="st0" x1="491.77" y1="125.24" x2="711.72" y2="45.39"/>
<line class="st0" x1="491.77" y1="564.24" x2="711.72" y2="484.39"/>
<line class="st0" x1="52.77" y1="125.24" x2="272.72" y2="45.39"/>
<line class="st0" x1="52.77" y1="564.24" x2="272.72" y2="484.39"/>
<line class="st0" x1="711.72" y1="45.39" x2="711.72" y2="484.39"/>
<line class="st0" x1="272.72" y1="45.39" x2="272.72" y2="484.39"/>
<line class="st0" x1="272.72" y1="45.39" x2="711.72" y2="45.39"/>
<line class="st0" x1="272.72" y1="484.39" x2="711.72" y2="484.39"/>
<circle class="st1" cx="52.77" cy="125.24" r="9"/>
<circle class="st1" cx="272.72" cy="45.39" r="9"/>
<circle class="st1" cx="272.72" cy="484.39" r="9"/>
<circle class="st1" cx="52.77" cy="564.24" r="9"/>
<circle class="st1" cx="492.22" cy="564.24" r="9"/>
<circle class="st1" cx="492.22" cy="125.24" r="9"/>
<circle class="st1" cx="711.72" cy="45.39" r="9"/>
<circle class="st1" cx="711.72" cy="487.66" r="9"/>
<circle class="st1" cx="549.58" cy="543.26" r="9"/>
<circle class="st1" cx="152.13" cy="564.24" r="9"/>
<circle class="st1" cx="269.33" cy="564.24" r="9"/>
<circle class="st1" cx="386.52" cy="564.24" r="9"/>
<circle class="st1" cx="152.13" cy="125.24" r="9"/>
<circle class="st1" cx="269.33" cy="125.24" r="9"/>
<circle class="st1" cx="386.52" cy="125.24" r="9"/>
<circle class="st1" cx="356.5" cy="45.39" r="9"/>
<circle class="st1" cx="473.69" cy="45.39" r="9"/>
<circle class="st1" cx="590.89" cy="45.39" r="9"/>
<circle class="st1" cx="491.77" cy="227.55" r="9"/>
<circle class="st1" cx="491.77" cy="344.74" r="9"/>
<circle class="st1" cx="491.77" cy="461.94" r="9"/>
<circle class="st1" cx="711.72" cy="156.69" r="9"/>
<circle class="st1" cx="711.72" cy="273.89" r="9"/>
<circle class="st1" cx="711.72" cy="391.09" r="9"/>
<circle class="st1" cx="272.72" cy="156.69" r="9"/>
<circle class="st1" cx="272.72" cy="273.89" r="9"/>
<circle class="st1" cx="272.72" cy="391.09" r="9"/>
<circle class="st1" cx="52.77" cy="227.55" r="9"/>
<circle class="st1" cx="52.77" cy="344.74" r="9"/>
<circle class="st1" cx="52.77" cy="461.94" r="9"/>
<circle class="st1" cx="356.5" cy="484.39" r="9"/>
<circle class="st1" cx="473.69" cy="484.39" r="9"/>
<circle class="st1" cx="590.89" cy="484.39" r="9"/>
<circle class="st1" cx="601.75" cy="524.32" r="9"/>
<circle class="st1" cx="657.64" cy="504.02" r="9"/>
<circle class="st1" cx="547.72" cy="104.93" r="9"/>
<circle class="st1" cx="599.89" cy="85.99" r="9"/>
<circle class="st1" cx="655.78" cy="65.7" r="9"/>
<circle class="st1" cx="108.96" cy="105.61" r="9"/>
<circle class="st1" cx="161.13" cy="86.67" r="9"/>
<circle class="st1" cx="217.02" cy="66.38" r="9"/>
<circle class="st1" cx="108.72" cy="543.93" r="9"/>
<circle class="st1" cx="160.89" cy="524.99" r="9"/>
<circle class="st1" cx="216.78" cy="504.7" r="9"/>
</svg>
