<?xml version="1.0" encoding="utf-8"?>
<!-- Generator: Adobe Adobe Illustrator 24.2.0, SVG Export Plug-In . SVG Version: 6.00 Build 0)  -->
<svg version="1.1" xmlns="http://www.w3.org/2000/svg" xmlns:xlink="http://www.w3.org/1999/xlink" x="0px" y="0px" width="640px"
	 height="942px" viewBox="0 0 640 942" style="enable-background:new 0 0 640 942;" xml:space="preserve">
<style type="text/css">
	.st0{stroke:#000000;stroke-width:4;stroke-miterlimit:10;}
	.st1{fill:url(#SVGID_1_);stroke:#000000;stroke-width:4;stroke-miterlimit:10;}
	.st2{fill:url(#SVGID_2_);stroke:#000000;stroke-width:4;stroke-miterlimit:10;}
	.st3{fill:url(#SVGID_3_);stroke:#000000;stroke-width:4;stroke-miterlimit:10;}
	.st4{fill:url(#SVGID_4_);stroke:#000000;stroke-width:4;stroke-miterlimit:10;}
	.st5{fill:url(#SVGID_5_);stroke:#000000;stroke-width:4;stroke-linecap:round;stroke-linejoin:round;stroke-miterlimit:10;}
	.st6{fill:url(#SVGID_6_);stroke:#000000;stroke-width:4;stroke-linecap:round;stroke-linejoin:round;stroke-miterlimit:10;}
	.st7{fill:url(#SVGID_7_);stroke:#000000;stroke-width:4;stroke-linecap:round;stroke-linejoin:round;stroke-miterlimit:10;}
	.st8{fill:url(#SVGID_8_);stroke:#000000;stroke-width:4;stroke-linecap:round;stroke-linejoin:round;stroke-miterlimit:10;}
	.st9{fill:url(#SVGID_9_);stroke:#000000;stroke-width:4;stroke-linecap:round;stroke-linejoin:round;stroke-miterlimit:10;}
	.st10{fill:url(#SVGID_10_);stroke:#000000;stroke-width:4;stroke-linecap:round;stroke-linejoin:round;stroke-miterlimit:10;}
	.st11{fill:url(#SVGID_11_);stroke:#000000;stroke-width:4;stroke-linecap:round;stroke-linejoin:round;stroke-miterlimit:10;}
	.st12{fill:url(#SVGID_12_);stroke:#000000;stroke-width:4;stroke-linecap:round;stroke-linejoin:round;stroke-miterlimit:10;}
	.st13{fill:url(#SVGID_13_);stroke:#000000;stroke-width:4;stroke-linecap:round;stroke-linejoin:round;stroke-miterlimit:10;}
	.st14{fill:url(#SVGID_14_);stroke:#000000;stroke-width:4;stroke-linecap:round;stroke-linejoin:round;stroke-miterlimit:10;}
	.st15{fill:url(#SVGID_15_);stroke:#000000;stroke-width:4;stroke-linecap:round;stroke-linejoin:round;stroke-miterlimit:10;}
	.st16{fill:url(#SVGID_16_);stroke:#000000;stroke-width:4;stroke-linecap:round;stroke-linejoin:round;stroke-miterlimit:10;}
	.st17{fill:url(#SVGID_17_);stroke:#2181FF;stroke-width:4;stroke-miterlimit:10;}
	.st18{fill:url(#SVGID_18_);stroke:#2181FF;stroke-width:4;stroke-miterlimit:10;}
	.st19{fill:url(#SVGID_19_);stroke:#2181FF;stroke-width:4;stroke-miterlimit:10;}
	.st20{fill:url(#SVGID_20_);stroke:#FC9300;stroke-miterlimit:10;}
	.st21{fill:none;stroke:#000000;stroke-width:3;stroke-linecap:round;stroke-linejoin:round;stroke-miterlimit:10;}
	.st22{stroke:#070808;stroke-width:4;stroke-miterlimit:10;}
	.st23{stroke:#000000;stroke-width:17;stroke-miterlimit:10;}
	.st24{stroke:#000000;stroke-width:17;stroke-linecap:round;stroke-linejoin:round;stroke-miterlimit:10;}
</style>
<g id="Layer_1">
	<line class="st0" x1="194" y1="322.93" x2="481.03" y2="322.93"/>
	
		<radialGradient id="SVGID_1_" cx="186.8832" cy="142.071" r="6.1388" gradientTransform="matrix(16.111 0.224 0 0 0 0)" gradientUnits="userSpaceOnUse">
		<stop  offset="0" style="stop-color:#CFF1FF"/>
		<stop  offset="0.3753" style="stop-color:#CCEFFE"/>
		<stop  offset="0.6055" style="stop-color:#C4E7FC"/>
		<stop  offset="0.7966" style="stop-color:#B6D9F9"/>
		<stop  offset="0.9653" style="stop-color:#A1C6F4"/>
		<stop  offset="1" style="stop-color:#9CC1F3"/>
	</radialGradient>
	<line class="st1" x1="194" y1="142.26" x2="481.03" y2="142.26"/>
	
		<radialGradient id="SVGID_2_" cx="281.0652" cy="551.9189" r="6.1388" gradientTransform="matrix(16.111 0.224 -14.5417 3.828 3835.1382 -1612.9131)" gradientUnits="userSpaceOnUse">
		<stop  offset="0" style="stop-color:#CFF1FF"/>
		<stop  offset="0.3753" style="stop-color:#CCEFFE"/>
		<stop  offset="0.6055" style="stop-color:#C4E7FC"/>
		<stop  offset="0.7966" style="stop-color:#B6D9F9"/>
		<stop  offset="0.9653" style="stop-color:#A1C6F4"/>
		<stop  offset="1" style="stop-color:#9CC1F3"/>
	</radialGradient>
	<line class="st2" x1="194" y1="562.79" x2="481.03" y2="562.79"/>
	
		<radialGradient id="SVGID_3_" cx="361.3961" cy="900.9517" r="6.1388" gradientTransform="matrix(16.111 0.224 -14.5417 3.828 7618.4717 -2608.8523)" gradientUnits="userSpaceOnUse">
		<stop  offset="0" style="stop-color:#CFF1FF"/>
		<stop  offset="0.3753" style="stop-color:#CCEFFE"/>
		<stop  offset="0.6055" style="stop-color:#C4E7FC"/>
		<stop  offset="0.7966" style="stop-color:#B6D9F9"/>
		<stop  offset="0.9653" style="stop-color:#A1C6F4"/>
		<stop  offset="1" style="stop-color:#9CC1F3"/>
	</radialGradient>
	<line class="st3" x1="196" y1="920.95" x2="483.03" y2="920.95"/>
</g>
<g id="Layer_3">
	
		<radialGradient id="SVGID_4_" cx="473.1807" cy="188.781" r="7.8437" gradientTransform="matrix(0.9781 -7.3204 0.8174 135.1412 -136.101 -21515.748)" gradientUnits="userSpaceOnUse">
		<stop  offset="0" style="stop-color:#CFF1FF"/>
		<stop  offset="0.3753" style="stop-color:#CCEFFE"/>
		<stop  offset="0.6055" style="stop-color:#C4E7FC"/>
		<stop  offset="0.7966" style="stop-color:#B6D9F9"/>
		<stop  offset="0.9653" style="stop-color:#A1C6F4"/>
		<stop  offset="1" style="stop-color:#9CC1F3"/>
	</radialGradient>
	<line class="st4" x1="481.03" y1="142.26" x2="481.03" y2="922.66"/>
	<g>
		<g>
			<g>
				
					<radialGradient id="SVGID_5_" cx="589.46" cy="148.9388" r="2.7584" gradientTransform="matrix(0.9963 -1.1667 0 7.417041e-18 -111.2664 837.5012)" gradientUnits="userSpaceOnUse">
					<stop  offset="0" style="stop-color:#CFF1FF"/>
					<stop  offset="0.3753" style="stop-color:#CCEFFE"/>
					<stop  offset="0.6055" style="stop-color:#C4E7FC"/>
					<stop  offset="0.7966" style="stop-color:#B6D9F9"/>
					<stop  offset="0.9653" style="stop-color:#A1C6F4"/>
					<stop  offset="1" style="stop-color:#9CC1F3"/>
				</radialGradient>
				<line class="st5" x1="481.03" y1="141.99" x2="471" y2="157.57"/>
				
					<radialGradient id="SVGID_6_" cx="646.7281" cy="190.005" r="2.7584" gradientTransform="matrix(-0.9963 -1.1667 0 1.572075e-12 1130.3807 904.316)" gradientUnits="userSpaceOnUse">
					<stop  offset="0" style="stop-color:#CFF1FF"/>
					<stop  offset="0.3753" style="stop-color:#CCEFFE"/>
					<stop  offset="0.6055" style="stop-color:#C4E7FC"/>
					<stop  offset="0.7966" style="stop-color:#B6D9F9"/>
					<stop  offset="0.9653" style="stop-color:#A1C6F4"/>
					<stop  offset="1" style="stop-color:#9CC1F3"/>
				</radialGradient>
				<line class="st6" x1="481.03" y1="141.99" x2="491.06" y2="157.57"/>
			</g>
		</g>
	</g>
	<g>
		<g>
			<g>
				
					<radialGradient id="SVGID_7_" cx="831.2117" cy="434.6533" r="2.7584" gradientTransform="matrix(0.9963 -1.1667 0 7.417041e-18 -352.1244 1302.3591)" gradientUnits="userSpaceOnUse">
					<stop  offset="0" style="stop-color:#CFF1FF"/>
					<stop  offset="0.3753" style="stop-color:#CCEFFE"/>
					<stop  offset="0.6055" style="stop-color:#C4E7FC"/>
					<stop  offset="0.7966" style="stop-color:#B6D9F9"/>
					<stop  offset="0.9653" style="stop-color:#A1C6F4"/>
					<stop  offset="1" style="stop-color:#9CC1F3"/>
				</radialGradient>
				<line class="st7" x1="481.03" y1="324.79" x2="471" y2="340.37"/>
				
					<radialGradient id="SVGID_8_" cx="888.4799" cy="475.7195" r="2.7584" gradientTransform="matrix(-0.9963 -1.1667 0 1.572075e-12 1371.2388 1369.174)" gradientUnits="userSpaceOnUse">
					<stop  offset="0" style="stop-color:#CFF1FF"/>
					<stop  offset="0.3753" style="stop-color:#CCEFFE"/>
					<stop  offset="0.6055" style="stop-color:#C4E7FC"/>
					<stop  offset="0.7966" style="stop-color:#B6D9F9"/>
					<stop  offset="0.9653" style="stop-color:#A1C6F4"/>
					<stop  offset="1" style="stop-color:#9CC1F3"/>
				</radialGradient>
				<line class="st8" x1="481.03" y1="324.79" x2="491.06" y2="340.37"/>
			</g>
		</g>
	</g>
	<g>
		<g>
			<g>
				
					<radialGradient id="SVGID_9_" cx="1148.4252" cy="809.5523" r="2.7584" gradientTransform="matrix(0.9963 -1.1667 0 7.417041e-18 -668.1651 1912.3204)" gradientUnits="userSpaceOnUse">
					<stop  offset="0" style="stop-color:#CFF1FF"/>
					<stop  offset="0.3753" style="stop-color:#CCEFFE"/>
					<stop  offset="0.6055" style="stop-color:#C4E7FC"/>
					<stop  offset="0.7966" style="stop-color:#B6D9F9"/>
					<stop  offset="0.9653" style="stop-color:#A1C6F4"/>
					<stop  offset="1" style="stop-color:#9CC1F3"/>
				</radialGradient>
				<line class="st9" x1="481.03" y1="564.66" x2="471" y2="580.24"/>
				
					<radialGradient id="SVGID_10_" cx="1205.6932" cy="850.6185" r="2.7584" gradientTransform="matrix(-0.9963 -1.1667 0 1.572075e-12 1687.2794 1979.1353)" gradientUnits="userSpaceOnUse">
					<stop  offset="0" style="stop-color:#CFF1FF"/>
					<stop  offset="0.3753" style="stop-color:#CCEFFE"/>
					<stop  offset="0.6055" style="stop-color:#C4E7FC"/>
					<stop  offset="0.7966" style="stop-color:#B6D9F9"/>
					<stop  offset="0.9653" style="stop-color:#A1C6F4"/>
					<stop  offset="1" style="stop-color:#9CC1F3"/>
				</radialGradient>
				<line class="st10" x1="481.03" y1="564.66" x2="491.06" y2="580.24"/>
			</g>
		</g>
	</g>
	<g>
		<g>
			<g>
				
					<radialGradient id="SVGID_11_" cx="1159.0483" cy="617.6915" r="2.7584" gradientTransform="matrix(-0.9963 1.1667 0 -7.417041e-18 1641.778 -439.1017)" gradientUnits="userSpaceOnUse">
					<stop  offset="0" style="stop-color:#CFF1FF"/>
					<stop  offset="0.3753" style="stop-color:#CCEFFE"/>
					<stop  offset="0.6055" style="stop-color:#C4E7FC"/>
					<stop  offset="0.7966" style="stop-color:#B6D9F9"/>
					<stop  offset="0.9653" style="stop-color:#A1C6F4"/>
					<stop  offset="1" style="stop-color:#9CC1F3"/>
				</radialGradient>
				<line class="st11" x1="482" y1="920.95" x2="492.03" y2="905.37"/>
				
					<radialGradient id="SVGID_12_" cx="336.6626" cy="27.9695" r="2.7584" gradientTransform="matrix(0.9963 1.1667 0 -1.572075e-12 141.5675 520.3769)" gradientUnits="userSpaceOnUse">
					<stop  offset="0" style="stop-color:#CFF1FF"/>
					<stop  offset="0.3753" style="stop-color:#CCEFFE"/>
					<stop  offset="0.6055" style="stop-color:#C4E7FC"/>
					<stop  offset="0.7966" style="stop-color:#B6D9F9"/>
					<stop  offset="0.9653" style="stop-color:#A1C6F4"/>
					<stop  offset="1" style="stop-color:#9CC1F3"/>
				</radialGradient>
				<line class="st12" x1="482" y1="920.95" x2="471.97" y2="905.37"/>
			</g>
		</g>
	</g>
	<g>
		<g>
			<g>
				
					<radialGradient id="SVGID_13_" cx="1954.8561" cy="1557.066" r="2.7584" gradientTransform="matrix(-0.9963 1.1667 0 -7.417041e-18 2433.6729 -1967.4653)" gradientUnits="userSpaceOnUse">
					<stop  offset="0" style="stop-color:#CFF1FF"/>
					<stop  offset="0.3753" style="stop-color:#CCEFFE"/>
					<stop  offset="0.6055" style="stop-color:#C4E7FC"/>
					<stop  offset="0.7966" style="stop-color:#B6D9F9"/>
					<stop  offset="0.9653" style="stop-color:#A1C6F4"/>
					<stop  offset="1" style="stop-color:#9CC1F3"/>
				</radialGradient>
				<line class="st13" x1="481.03" y1="321.06" x2="491.06" y2="305.48"/>
				
					<radialGradient id="SVGID_14_" cx="1127.5137" cy="963.7896" r="2.7584" gradientTransform="matrix(0.9963 1.1667 0 -1.572075e-12 -647.3309 -1002.2037)" gradientUnits="userSpaceOnUse">
					<stop  offset="0" style="stop-color:#CFF1FF"/>
					<stop  offset="0.3753" style="stop-color:#CCEFFE"/>
					<stop  offset="0.6055" style="stop-color:#C4E7FC"/>
					<stop  offset="0.7966" style="stop-color:#B6D9F9"/>
					<stop  offset="0.9653" style="stop-color:#A1C6F4"/>
					<stop  offset="1" style="stop-color:#9CC1F3"/>
				</radialGradient>
				<line class="st14" x1="481.03" y1="321.06" x2="471" y2="305.48"/>
			</g>
		</g>
	</g>
	<g>
		<g>
			<g>
				
					<radialGradient id="SVGID_15_" cx="1637.6427" cy="1182.167" r="2.7584" gradientTransform="matrix(-0.9963 1.1667 0 -7.417041e-18 2117.6321 -1357.504)" gradientUnits="userSpaceOnUse">
					<stop  offset="0" style="stop-color:#CFF1FF"/>
					<stop  offset="0.3753" style="stop-color:#CCEFFE"/>
					<stop  offset="0.6055" style="stop-color:#C4E7FC"/>
					<stop  offset="0.7966" style="stop-color:#B6D9F9"/>
					<stop  offset="0.9653" style="stop-color:#A1C6F4"/>
					<stop  offset="1" style="stop-color:#9CC1F3"/>
				</radialGradient>
				<line class="st15" x1="481.03" y1="560.93" x2="491.06" y2="545.35"/>
				
					<radialGradient id="SVGID_16_" cx="810.3002" cy="588.8905" r="2.7584" gradientTransform="matrix(0.9963 1.1667 0 -1.572075e-12 -331.2902 -392.2424)" gradientUnits="userSpaceOnUse">
					<stop  offset="0" style="stop-color:#CFF1FF"/>
					<stop  offset="0.3753" style="stop-color:#CCEFFE"/>
					<stop  offset="0.6055" style="stop-color:#C4E7FC"/>
					<stop  offset="0.7966" style="stop-color:#B6D9F9"/>
					<stop  offset="0.9653" style="stop-color:#A1C6F4"/>
					<stop  offset="1" style="stop-color:#9CC1F3"/>
				</radialGradient>
				<line class="st16" x1="481.03" y1="560.93" x2="471" y2="545.35"/>
			</g>
		</g>
	</g>
</g>
<g id="Layer_2">
	
		<radialGradient id="SVGID_17_" cx="168.5546" cy="398.7699" r="107.9685" gradientTransform="matrix(1.1022 0 0 1.1022 11.8846 0.702)" gradientUnits="userSpaceOnUse">
		<stop  offset="0" style="stop-color:#F7FDFF"/>
		<stop  offset="0.3105" style="stop-color:#F4FBFF"/>
		<stop  offset="0.5009" style="stop-color:#ECF6FE"/>
		<stop  offset="0.659" style="stop-color:#DEECFC"/>
		<stop  offset="0.7993" style="stop-color:#C9DFF9"/>
		<stop  offset="0.9267" style="stop-color:#AFCDF5"/>
		<stop  offset="1" style="stop-color:#9CC1F3"/>
	</radialGradient>
	<circle class="st17" cx="197.66" cy="440.22" r="119"/>
	
		<radialGradient id="SVGID_18_" cx="115.2683" cy="597.424" r="109.5" gradientTransform="matrix(1.6347 0 0 1.6347 9.2313 -234.6596)" gradientUnits="userSpaceOnUse">
		<stop  offset="0" style="stop-color:#FFFFFF"/>
		<stop  offset="0.302" style="stop-color:#FCFDFF"/>
		<stop  offset="0.4873" style="stop-color:#F4F8FE"/>
		<stop  offset="0.641" style="stop-color:#E6EFFC"/>
		<stop  offset="0.7776" style="stop-color:#D1E2F9"/>
		<stop  offset="0.9015" style="stop-color:#B7D2F6"/>
		<stop  offset="1" style="stop-color:#9CC1F3"/>
	</radialGradient>
	<circle class="st18" cx="197.66" cy="741.95" r="179"/>
	
		<radialGradient id="SVGID_19_" cx="220.6118" cy="223.5906" r="109.5" gradientTransform="matrix(0.8174 0 0 0.8174 17.3435 47.0955)" gradientUnits="userSpaceOnUse">
		<stop  offset="0" style="stop-color:#FFFFFF"/>
		<stop  offset="0.302" style="stop-color:#FCFDFF"/>
		<stop  offset="0.4873" style="stop-color:#F4F8FE"/>
		<stop  offset="0.641" style="stop-color:#E6EFFC"/>
		<stop  offset="0.7776" style="stop-color:#D1E2F9"/>
		<stop  offset="0.9015" style="stop-color:#B7D2F6"/>
		<stop  offset="1" style="stop-color:#9CC1F3"/>
	</radialGradient>
	<circle class="st19" cx="197.66" cy="229.85" r="89.5"/>
	<g>
		<path d="M510.54,244.2v-36.39h10.07c4.89,0,8.46,0.67,10.73,2c2.27,1.33,4.04,3.36,5.32,6.09s1.92,6.05,1.92,9.97
			c0,3.68-0.58,6.86-1.73,9.56c-1.16,2.7-2.89,4.83-5.22,6.41c-2.32,1.57-5.77,2.36-10.35,2.36H510.54z M515.3,240.2h5.58
			c3.32,0,5.83-0.49,7.53-1.47s2.99-2.51,3.9-4.61c0.9-2.09,1.35-4.71,1.35-7.86c0-3.17-0.41-5.89-1.24-8.16
			c-0.83-2.27-2.08-3.94-3.75-5.02c-1.67-1.08-4.32-1.62-7.92-1.62h-5.45V240.2z"/>
	</g>
	<g>
		<path d="M501.56,441.54v-3.33h2.51c1.94,0,3.46-0.31,4.56-0.92c1.1-0.62,1.97-1.39,2.62-2.32c0.65-0.93,0.97-1.96,0.97-3.09
			c0-1.45-0.53-2.6-1.59-3.44c-1.06-0.84-2.46-1.26-4.19-1.26c-1.01,0-1.95,0.13-2.83,0.39c-0.88,0.26-1.55,0.7-2.01,1.32
			c-0.46,0.62-0.7,1.26-0.7,1.92v0.24h-3.81v-0.24c0-1.74,0.74-3.33,2.21-4.78c1.47-1.45,3.92-2.18,7.36-2.18
			c3.25,0,5.69,0.7,7.33,2.09s2.45,3.19,2.45,5.39c0,1.19-0.24,2.31-0.71,3.35c-0.47,1.04-1.18,1.97-2.1,2.79
			c-0.93,0.82-2.26,1.48-4,1.98c2.72,0.79,4.76,1.94,6.1,3.47c1.34,1.52,2.01,3.43,2.01,5.71c0,2.66-0.94,5.1-2.83,7.3
			c-1.89,2.2-4.74,3.3-8.55,3.3c-3.35,0-5.79-0.71-7.33-2.13c-1.53-1.42-2.3-3.03-2.3-4.83v-0.21h4v0.21c0,1.21,0.56,2.12,1.7,2.72
			c1.13,0.61,2.57,0.91,4.33,0.91c1.37,0,2.58-0.26,3.63-0.77c1.05-0.51,1.85-1.34,2.39-2.48c0.54-1.14,0.82-2.39,0.82-3.74
			c0-2.08-0.82-3.82-2.47-5.24c-1.65-1.41-4.15-2.12-7.52-2.12H501.56z"/>
		<path d="M527.24,459.22h-3.84l17.95-35.36h3.72L527.24,459.22z"/>
		<path d="M549.88,458.22v-3.45c0-1.82,0.56-3.79,1.68-5.92c1.12-2.13,3-4.2,5.65-6.22l2.24-1.76c3.01-2.32,4.92-4.06,5.75-5.21
			c0.81-1.15,1.21-2.34,1.21-3.57c0-1.29-0.54-2.43-1.62-3.42c-1.08-0.99-2.63-1.48-4.65-1.48c-1.84,0-3.2,0.36-4.09,1.08
			c-0.89,0.72-1.33,1.52-1.33,2.41v0.21h-4v-0.21c0-1.17,0.4-2.28,1.2-3.33c0.8-1.05,1.87-1.89,3.22-2.53
			c1.35-0.64,3.06-0.95,5.12-0.95c3.77,0,6.46,0.8,8.07,2.41c1.61,1.6,2.41,3.53,2.41,5.77c0,1.17-0.25,2.36-0.76,3.57
			c-0.5,1.21-1.5,2.47-2.98,3.78c-1.48,1.31-2.69,2.29-3.62,2.94l-1.63,1.12c-5.13,3.51-7.69,6.94-7.69,10.29v0.82h17.35v3.66
			H549.88z"/>
		<path d="M599.2,458.22v-33.36h9.23c4.48,0,7.76,0.61,9.84,1.83c2.08,1.22,3.7,3.08,4.87,5.58c1.17,2.5,1.76,5.55,1.76,9.14
			c0,3.37-0.53,6.29-1.59,8.76c-1.06,2.47-2.65,4.43-4.78,5.87c-2.13,1.44-5.29,2.16-9.49,2.16H599.2z M603.56,454.56h5.12
			c3.05,0,5.35-0.45,6.9-1.35c1.55-0.9,2.74-2.31,3.57-4.22c0.83-1.92,1.24-4.32,1.24-7.21c0-2.91-0.38-5.4-1.13-7.48
			c-0.76-2.08-1.9-3.61-3.44-4.6c-1.53-0.99-3.96-1.48-7.27-1.48h-5V454.56z"/>
	</g>
	<g>
		<path d="M502.59,759.42v-3.47c0-1.83,0.56-3.81,1.69-5.96c1.13-2.14,3.02-4.23,5.68-6.26l2.25-1.77c3.03-2.33,4.95-4.08,5.79-5.24
			c0.81-1.16,1.22-2.35,1.22-3.59c0-1.3-0.54-2.45-1.63-3.44c-1.09-0.99-2.64-1.49-4.67-1.49c-1.85,0-3.22,0.36-4.11,1.08
			s-1.34,1.53-1.34,2.42v0.21h-4.02v-0.21c0-1.18,0.4-2.29,1.2-3.35c0.8-1.06,1.88-1.9,3.24-2.54s3.08-0.96,5.15-0.96
			c3.8,0,6.5,0.81,8.12,2.42s2.42,3.55,2.42,5.8c0,1.18-0.25,2.38-0.76,3.59c-0.51,1.22-1.51,2.49-3,3.81
			c-1.49,1.32-2.71,2.3-3.64,2.96l-1.64,1.13c-5.16,3.53-7.74,6.99-7.74,10.36v0.82h17.45v3.69H502.59z"/>
		<path d="M552.21,759.42v-33.56h9.29c4.51,0,7.81,0.61,9.9,1.84c2.09,1.23,3.73,3.1,4.9,5.62c1.18,2.52,1.77,5.58,1.77,9.2
			c0,3.39-0.53,6.33-1.6,8.82c-1.07,2.49-2.67,4.46-4.81,5.91c-2.14,1.45-5.33,2.18-9.55,2.18H552.21z M556.59,755.73h5.15
			c3.07,0,5.38-0.45,6.94-1.36c1.56-0.9,2.76-2.32,3.59-4.25c0.83-1.93,1.25-4.34,1.25-7.25c0-2.92-0.38-5.43-1.14-7.52
			c-0.76-2.09-1.91-3.63-3.46-4.63c-1.54-0.99-3.98-1.49-7.31-1.49h-5.03V755.73z"/>
	</g>
	
		<radialGradient id="SVGID_20_" cx="78.5501" cy="290.8483" r="2.088" gradientTransform="matrix(4.5173 0 0 4.3209 -155.5894 -1002.7816)" gradientUnits="userSpaceOnUse">
		<stop  offset="0" style="stop-color:#FFFC3D"/>
		<stop  offset="0.1756" style="stop-color:#FFF63A"/>
		<stop  offset="0.4049" style="stop-color:#FEE630"/>
		<stop  offset="0.6638" style="stop-color:#FCCB21"/>
		<stop  offset="0.9428" style="stop-color:#FAA60C"/>
		<stop  offset="1" style="stop-color:#FA9D07"/>
	</radialGradient>
	<circle class="st20" cx="199.25" cy="253.95" r="9.22"/>
	<path class="st21" d="M190.74,278.52c0,9.71,17.02,9.59,17.02,0"/>
	<circle class="st22" cx="200.01" cy="497.53" r="9.25"/>
	<circle class="st22" cx="200.01" cy="645" r="9.25"/>
	<circle class="st22" cx="200.01" cy="777.22" r="9.25"/>
</g>
<g id="Layer_4">
	<circle cx="232.76" cy="221.56" r="8.76"/>
	<circle cx="167.26" cy="221.56" r="8.76"/>
	<g>
		<g>
			<path class="st23" d="M161.19,123.05V46.89c0-7.56,6.13-13.69,13.69-13.69h50.3c7.54,0,13.66,6.13,13.66,13.69v76.19
				c0,7.56-6.13,13.69-13.69,13.69h-50.27C167.31,136.74,161.19,130.61,161.19,123.05z"/>
			<line class="st24" x1="135.3" y1="136.74" x2="264.73" y2="136.74"/>
		</g>
	</g>
</g>
</svg>
