<?xml version="1.0" encoding="utf-8"?>
<!-- Generator: Adobe Adobe Illustrator 24.2.0, SVG Export Plug-In . SVG Version: 6.00 Build 0)  -->
<svg version="1.1" id="Layer_1" xmlns="http://www.w3.org/2000/svg" xmlns:xlink="http://www.w3.org/1999/xlink" x="0px" y="0px"
	 width="715px" height="370px" viewBox="0 0 715 370" style="enable-background:new 0 0 715 370;" xml:space="preserve">
<style type="text/css">
	.st0{fill:#FFAE00;stroke:#000000;stroke-miterlimit:10;}
	.st1{fill:none;stroke:#000000;stroke-width:3;stroke-miterlimit:10;}
	.st2{font-family:'SourceSansPro-Regular';}
	.st3{font-size:48px;}
</style>
<g>
	<g>
		<g>
			<path class="st0" d="M78.7,113.91l93.2,93.78l-93.44,93.36c0,0-8.02-8.26-14.88-18.05s-12.57-21.11-15.6-30.62
				C31.81,201.73,38.59,154.44,78.7,113.91z"/>
			<path class="st0" d="M266.07,113.91l-94.18,93.78l94.42,93.36c0,0,8.1-8.26,15.04-18.05s12.7-21.11,15.77-30.62
				C313.45,201.73,306.6,154.44,266.07,113.91z"/>
			<path class="st0" d="M531.51,113.91L438,207.68l93.76,93.36c0,0,8.04-8.26,14.93-18.05s12.61-21.11,15.66-30.62
				C578.56,201.73,571.76,154.44,531.51,113.91z"/>
			<path class="st0" d="M344.46,113.91l93.45,93.95l-93.7,93.53c0,0-8.04-8.28-14.92-18.08c-6.88-9.81-12.6-21.15-15.65-30.68
				C297.45,201.89,304.24,154.51,344.46,113.91z"/>
			<path class="st0" d="M39.53,75.84l38.76,38.21l5.91-5.77c19.21-17.85,49.29-29.91,69.69-31.96l9.73-1.22"/>
			<path class="st0" d="M39.53,339.1l38.76-38.21l5.91,5.77c19.21,17.85,49.29,29.91,69.69,31.96l9.73,1.22"/>
			<path class="st0" d="M304.95,339.1l-38.76-38.21l-5.91,5.77c-19.21,17.85-49.29,29.91-69.69,31.96l-9.73,1.22"/>
			<path class="st0" d="M570.5,339.1l-38.76-38.21l-5.91,5.77c-19.21,17.85-49.29,29.91-69.69,31.96l-9.73,1.22"/>
			<path class="st0" d="M304.4,339.1l38.76-38.21l5.91,5.77c19.21,17.85,49.29,29.91,69.69,31.96l9.73,1.22"/>
			<path class="st0" d="M304.4,75.84l38.76,38.21l5.91-5.77c19.21-17.85,49.29-29.91,69.69-31.96l9.73-1.22"/>
			<path class="st0" d="M570.5,75.84l-38.76,38.21l-5.91-5.77c-19.21-17.85-49.29-29.91-69.69-31.96l-9.73-1.22"/>
			<path class="st0" d="M304.95,75.84l-38.76,38.21l-5.91-5.77c-19.21-17.85-49.29-29.91-69.69-31.96l-9.73-1.22"/>
		</g>
	</g>
</g>
<g>
	<g>
		<g>
			<circle class="st1" cx="171.9" cy="207.6" r="132.5"/>
			<circle class="st1" cx="438" cy="207.6" r="132.5"/>
			<rect x="39.4" y="75.1" class="st1" width="531.1" height="265"/>
			<line class="st1" x1="39.4" y1="75.1" x2="304.4" y2="340.1"/>
			<line class="st1" x1="305.5" y1="75.84" x2="570.5" y2="340.1"/>
			<line class="st1" x1="570.05" y1="75.54" x2="304.4" y2="340.1"/>
			<line class="st1" x1="305.5" y1="75.84" x2="39.84" y2="340.4"/>
		</g>
	</g>
</g>
<text transform="matrix(1 0 0 1 250.2996 57.33)" class="st2 st3">20 см</text>
<text transform="matrix(1 0 0 1 581.5611 217.9185)" class="st2 st3">10 см</text>
</svg>
