<?xml version="1.0" encoding="utf-8"?>
<!-- Generator: Adobe Adobe Illustrator 24.2.0, SVG Export Plug-In . SVG Version: 6.00 Build 0)  -->
<svg version="1.1" id="Layer_1" xmlns="http://www.w3.org/2000/svg" xmlns:xlink="http://www.w3.org/1999/xlink" x="0px" y="0px"
	 width="760px" height="740px" viewBox="0 0 760 740" style="enable-background:new 0 0 760 740;" xml:space="preserve">
<style type="text/css">
	.st0{fill:none;stroke:#000000;stroke-width:4;stroke-miterlimit:10;}
	.st1{fill:#FF6B6B;stroke:#000000;stroke-miterlimit:10;}
	.st2{fill:#96FF9A;stroke:#000000;stroke-miterlimit:10;}
</style>
<g>
	<g>
		<g>
			<path class="st0" d="M276.1,671.97V82.29c0-2.85,2.31-5.16,5.16-5.16h189.68c2.85,0,5.16,2.31,5.16,5.16v589.68
				c0,2.85-2.31,5.16-5.16,5.16H281.27C278.42,677.13,276.1,674.82,276.1,671.97z"/>
			<path class="st0" d="M76.1,671.97V82.29c0-2.85,2.31-5.16,5.16-5.16h189.68c2.85,0,5.16,2.31,5.16,5.16v589.68
				c0,2.85-2.31,5.16-5.16,5.16H81.27C78.42,677.13,76.1,674.82,76.1,671.97z"/>
			<path class="st0" d="M476.1,671.97V82.29c0-2.85,2.31-5.16,5.16-5.16h189.68c2.85,0,5.16,2.31,5.16,5.16v589.68
				c0,2.85-2.31,5.16-5.16,5.16H481.27C478.42,677.13,476.1,674.82,476.1,671.97z"/>
			<path class="st0" d="M81.27,77.13h589.68c2.85,0,5.16,2.31,5.16,5.16v189.68c0,2.85-2.31,5.16-5.16,5.16H81.27
				c-2.85,0-5.16-2.31-5.16-5.16V82.29C76.1,79.44,78.42,77.13,81.27,77.13z"/>
			<path class="st0" d="M81.27,277.13h589.68c2.85,0,5.16,2.31,5.16,5.16v189.68c0,2.85-2.31,5.16-5.16,5.16H81.27
				c-2.85,0-5.16-2.31-5.16-5.16V282.29C76.1,279.44,78.42,277.13,81.27,277.13z"/>
			<path class="st0" d="M81.27,477.13h589.68c2.85,0,5.16,2.31,5.16,5.16v189.68c0,2.85-2.31,5.16-5.16,5.16H81.27
				c-2.85,0-5.16-2.31-5.16-5.16V482.29C76.1,479.44,78.42,477.13,81.27,477.13z"/>
		</g>
	</g>
</g>
<circle class="st1" cx="77.47" cy="78.8" r="10"/>
<circle class="st1" cx="276.1" cy="277.13" r="10"/>
<circle class="st1" cx="276.1" cy="77.13" r="10"/>
<circle class="st1" cx="476.1" cy="77.13" r="10"/>
<circle class="st1" cx="476.1" cy="277.13" r="10"/>
<circle class="st1" cx="476.1" cy="477.13" r="10"/>
<circle class="st1" cx="276.1" cy="477.13" r="10"/>
<circle class="st1" cx="77.47" cy="477.13" r="10"/>
<circle class="st1" cx="276.1" cy="677.13" r="10"/>
<circle class="st1" cx="476.1" cy="677.13" r="10"/>
<circle class="st1" cx="676.1" cy="677.13" r="10"/>
<circle class="st1" cx="676.6" cy="477.13" r="10"/>
<circle class="st1" cx="676.1" cy="277.13" r="10"/>
<circle class="st2" cx="676.1" cy="78.8" r="10"/>
<circle class="st2" cx="77.47" cy="677.13" r="10"/>
<circle class="st1" cx="76.1" cy="277.13" r="10"/>
<g>
	<path d="M36.95,674.22h7.13l16.41,48.71h-6.61l-4.6-14.78H31.53l-4.68,14.78h-6.31L36.95,674.22z M33.16,703.11h14.55l-2.3-7.35
		c-1.78-5.42-3.34-10.77-4.9-16.41h-0.3c-1.48,5.64-3.04,10.99-4.75,16.41L33.16,703.11z"/>
</g>
<g>
	<path d="M705,36.06h14.48c9.88,0,16.78,3.34,16.78,11.88c0,4.83-2.6,9.13-7.13,10.62v0.3c5.79,1.11,9.88,4.97,9.88,11.66
		c0,9.58-7.57,14.26-18.41,14.26H705V36.06z M718.44,56.77c8.24,0,11.66-3.04,11.66-8.02c0-5.64-3.86-7.72-11.43-7.72h-7.43v15.74
		H718.44z M719.7,79.79c8.32,0,13.14-2.97,13.14-9.5c0-6.01-4.68-8.76-13.14-8.76h-8.46v18.27H719.7z"/>
</g>
<g>
	<g>
		<path d="M353.06,261.27h8.05v-25.8h-6.45v-2.98c3.25-0.55,5.57-1.43,7.5-2.59h3.53v31.37h7.22v3.8h-19.85V261.27z"/>
		<path d="M378.53,247.38c0-11.8,4.25-18.14,11.3-18.14c7,0,11.25,6.34,11.25,18.14s-4.25,18.36-11.25,18.36
			C382.78,265.74,378.53,259.18,378.53,247.38z M396.67,247.38c0-10.31-2.76-14.44-6.84-14.44s-6.84,4.13-6.84,14.44
			c0,10.31,2.76,14.66,6.84,14.66S396.67,257.69,396.67,247.38z"/>
	</g>
	<g>
		<path d="M616.17,193.27h8.05v-25.8h-6.45v-2.98c3.25-0.55,5.57-1.43,7.5-2.59h3.53v31.37h7.22v3.8h-19.85V193.27z"/>
		<path d="M641.63,179.38c0-11.8,4.25-18.14,11.3-18.14c7,0,11.25,6.34,11.25,18.14s-4.25,18.36-11.25,18.36
			C645.88,197.74,641.63,191.18,641.63,179.38z M659.77,179.38c0-10.31-2.76-14.44-6.84-14.44c-4.08,0-6.84,4.13-6.84,14.44
			c0,10.31,2.76,14.66,6.84,14.66C657.02,194.04,659.77,189.69,659.77,179.38z"/>
	</g>
	<g>
		<path d="M17.47,589.27h8.05v-25.8h-6.45v-2.98c3.25-0.55,5.57-1.43,7.5-2.59h3.53v31.37h7.22v3.8H17.47V589.27z"/>
		<path d="M42.94,575.38c0-11.8,4.25-18.14,11.3-18.14c7,0,11.25,6.34,11.25,18.14c0,11.8-4.25,18.36-11.25,18.36
			C47.18,593.74,42.94,587.18,42.94,575.38z M61.07,575.38c0-10.31-2.76-14.44-6.84-14.44s-6.84,4.13-6.84,14.44
			c0,10.31,2.76,14.66,6.84,14.66S61.07,585.69,61.07,575.38z"/>
	</g>
	<g>
		<path d="M145.32,662.27c10.47-10.25,16.54-16.76,16.54-22.44c0-4.02-2.21-6.84-6.67-6.84c-2.92,0-5.46,1.87-7.44,4.19l-2.59-2.48
			c2.92-3.31,6.06-5.46,10.58-5.46c6.5,0,10.58,4.13,10.58,10.31c0,6.84-6.17,13.18-14.72,21.89c1.93-0.17,4.08-0.28,5.9-0.28h10.53
			v3.91h-22.71V662.27z"/>
		<path d="M172.94,647.38c0-11.8,4.25-18.14,11.3-18.14c7,0,11.25,6.34,11.25,18.14s-4.25,18.36-11.25,18.36
			C177.18,665.74,172.94,659.18,172.94,647.38z M191.07,647.38c0-10.31-2.76-14.44-6.84-14.44s-6.84,4.13-6.84,14.44
			s2.76,14.66,6.84,14.66S191.07,657.69,191.07,647.38z"/>
	</g>
	<g>
		<path d="M350.91,662.27c10.47-10.25,16.54-16.76,16.54-22.44c0-4.02-2.21-6.84-6.67-6.84c-2.92,0-5.46,1.87-7.44,4.19l-2.59-2.48
			c2.92-3.31,6.06-5.46,10.58-5.46c6.5,0,10.58,4.13,10.58,10.31c0,6.84-6.17,13.18-14.72,21.89c1.93-0.17,4.08-0.28,5.9-0.28h10.53
			v3.91h-22.71V662.27z"/>
		<path d="M378.53,647.38c0-11.8,4.25-18.14,11.3-18.14c7,0,11.25,6.34,11.25,18.14s-4.25,18.36-11.25,18.36
			C382.78,665.74,378.53,659.18,378.53,647.38z M396.67,647.38c0-10.31-2.76-14.44-6.84-14.44s-6.84,4.13-6.84,14.44
			s2.76,14.66,6.84,14.66S396.67,657.69,396.67,647.38z"/>
	</g>
	<g>
		<path d="M613.52,386.17c10.47-10.25,16.54-16.76,16.54-22.44c0-4.02-2.21-6.84-6.67-6.84c-2.92,0-5.46,1.87-7.44,4.19l-2.59-2.48
			c2.92-3.31,6.06-5.46,10.58-5.46c6.5,0,10.58,4.13,10.58,10.31c0,6.84-6.17,13.18-14.72,21.89c1.93-0.17,4.08-0.28,5.9-0.28h10.53
			v3.91h-22.71V386.17z"/>
		<path d="M641.13,371.28c0-11.8,4.25-18.14,11.3-18.14c7,0,11.25,6.34,11.25,18.14s-4.25,18.36-11.25,18.36
			C645.38,389.64,641.13,383.08,641.13,371.28z M659.27,371.28c0-10.31-2.76-14.44-6.84-14.44c-4.08,0-6.84,4.13-6.84,14.44
			c0,10.31,2.76,14.66,6.84,14.66C656.52,385.95,659.27,381.59,659.27,371.28z"/>
	</g>
	<g>
		<path d="M413.52,386.17c10.47-10.25,16.54-16.76,16.54-22.44c0-4.02-2.21-6.84-6.67-6.84c-2.92,0-5.46,1.87-7.44,4.19l-2.59-2.48
			c2.92-3.31,6.06-5.46,10.58-5.46c6.5,0,10.58,4.13,10.58,10.31c0,6.84-6.17,13.18-14.72,21.89c1.93-0.17,4.08-0.28,5.9-0.28h10.53
			v3.91h-22.71V386.17z"/>
		<path d="M441.13,371.28c0-11.8,4.25-18.14,11.3-18.14c7,0,11.25,6.34,11.25,18.14s-4.25,18.36-11.25,18.36
			C445.38,389.64,441.13,383.08,441.13,371.28z M459.27,371.28c0-10.31-2.76-14.44-6.84-14.44s-6.84,4.13-6.84,14.44
			c0,10.31,2.76,14.66,6.84,14.66S459.27,381.59,459.27,371.28z"/>
	</g>
	<g>
		<path d="M15.32,386.17c10.47-10.25,16.54-16.76,16.54-22.44c0-4.02-2.21-6.84-6.67-6.84c-2.92,0-5.46,1.87-7.44,4.19l-2.59-2.48
			c2.92-3.31,6.06-5.46,10.58-5.46c6.5,0,10.58,4.13,10.58,10.31c0,6.84-6.17,13.18-14.72,21.89c1.93-0.17,4.08-0.28,5.9-0.28h10.53
			v3.91H15.32V386.17z"/>
		<path d="M42.94,371.28c0-11.8,4.25-18.14,11.3-18.14c7,0,11.25,6.34,11.25,18.14s-4.25,18.36-11.25,18.36
			C47.18,389.64,42.94,383.08,42.94,371.28z M61.08,371.28c0-10.31-2.76-14.44-6.84-14.44c-4.08,0-6.84,4.13-6.84,14.44
			c0,10.31,2.76,14.66,6.84,14.66C58.32,385.95,61.08,381.59,61.08,371.28z"/>
	</g>
	<g>
		<path d="M213.52,190.17c10.47-10.25,16.54-16.76,16.54-22.44c0-4.02-2.21-6.84-6.67-6.84c-2.92,0-5.46,1.87-7.44,4.19l-2.59-2.48
			c2.92-3.31,6.06-5.46,10.58-5.46c6.5,0,10.58,4.13,10.58,10.31c0,6.84-6.17,13.18-14.72,21.89c1.93-0.17,4.08-0.28,5.9-0.28h10.53
			v3.91h-22.71V190.17z"/>
		<path d="M241.13,175.28c0-11.8,4.25-18.14,11.3-18.14c7,0,11.25,6.34,11.25,18.14s-4.25,18.36-11.25,18.36
			C245.38,193.64,241.13,187.08,241.13,175.28z M259.27,175.28c0-10.31-2.76-14.44-6.84-14.44s-6.84,4.13-6.84,14.44
			c0,10.31,2.76,14.66,6.84,14.66S259.27,185.59,259.27,175.28z"/>
	</g>
	<g>
		<path d="M151.6,56.17c10.47-10.25,16.54-16.76,16.54-22.44c0-4.02-2.21-6.84-6.67-6.84c-2.92,0-5.46,1.87-7.44,4.19l-2.59-2.48
			c2.92-3.31,6.06-5.46,10.58-5.46c6.5,0,10.58,4.13,10.58,10.31c0,6.84-6.17,13.18-14.72,21.89c1.93-0.17,4.08-0.28,5.9-0.28h10.53
			v3.91H151.6V56.17z"/>
		<path d="M179.21,41.28c0-11.8,4.25-18.14,11.3-18.14c7,0,11.25,6.34,11.25,18.14s-4.25,18.36-11.25,18.36
			C183.46,59.64,179.21,53.08,179.21,41.28z M197.35,41.28c0-10.31-2.76-14.44-6.84-14.44s-6.84,4.13-6.84,14.44
			c0,10.31,2.76,14.66,6.84,14.66S197.35,51.59,197.35,41.28z"/>
	</g>
	<g>
		<path d="M148.04,260.78l2.32-2.98c2.09,2.21,4.85,4.13,8.99,4.13c4.25,0,7.28-2.48,7.28-6.4c0-4.19-2.87-7-11.25-7v-3.47
			c7.44,0,9.98-2.87,9.98-6.56c0-3.36-2.32-5.51-6.06-5.51c-2.92,0-5.4,1.49-7.5,3.53l-2.43-2.87c2.7-2.54,5.95-4.41,10.09-4.41
			c6.12,0,10.53,3.25,10.53,8.93c0,4.25-2.54,6.95-6.34,8.38v0.22c4.25,0.99,7.61,4.08,7.61,8.93c0,6.23-5.18,10.03-11.63,10.03
			C153.99,265.74,150.41,263.37,148.04,260.78z"/>
		<path d="M176.43,247.38c0-11.8,4.25-18.14,11.3-18.14c7,0,11.25,6.34,11.25,18.14s-4.25,18.36-11.25,18.36
			C180.67,265.74,176.43,259.18,176.43,247.38z M194.56,247.38c0-10.31-2.76-14.44-6.84-14.44s-6.84,4.13-6.84,14.44
			c0,10.31,2.76,14.66,6.84,14.66S194.56,257.69,194.56,247.38z"/>
	</g>
	<g>
		<path d="M350.14,52.45l2.32-2.98c2.09,2.21,4.85,4.13,8.99,4.13c4.25,0,7.28-2.48,7.28-6.4c0-4.19-2.87-7-11.25-7v-3.47
			c7.44,0,9.98-2.87,9.98-6.56c0-3.36-2.32-5.51-6.06-5.51c-2.92,0-5.4,1.49-7.5,3.53l-2.43-2.87c2.7-2.54,5.95-4.41,10.09-4.41
			c6.12,0,10.53,3.25,10.53,8.93c0,4.25-2.54,6.95-6.34,8.38v0.22c4.25,0.99,7.61,4.08,7.61,8.93c0,6.23-5.18,10.03-11.63,10.03
			C356.1,57.41,352.51,55.04,350.14,52.45z"/>
		<path d="M378.53,39.06c0-11.8,4.25-18.14,11.3-18.14c7,0,11.25,6.34,11.25,18.14s-4.25,18.36-11.25,18.36
			C382.78,57.41,378.53,50.85,378.53,39.06z M396.67,39.06c0-10.31-2.76-14.44-6.84-14.44c-4.08,0-6.84,4.13-6.84,14.44
			c0,10.31,2.76,14.66,6.84,14.66C393.91,53.72,396.67,49.36,396.67,39.06z"/>
	</g>
	<g>
		<path d="M547.43,460.78l2.32-2.98c2.09,2.21,4.85,4.13,8.99,4.13c4.25,0,7.28-2.48,7.28-6.4c0-4.19-2.87-7-11.25-7v-3.47
			c7.44,0,9.98-2.87,9.98-6.56c0-3.36-2.32-5.51-6.06-5.51c-2.92,0-5.4,1.49-7.5,3.53l-2.43-2.87c2.7-2.54,5.95-4.41,10.09-4.41
			c6.12,0,10.53,3.25,10.53,8.93c0,4.25-2.54,6.95-6.34,8.38v0.22c4.25,0.99,7.61,4.08,7.61,8.93c0,6.23-5.18,10.03-11.63,10.03
			C553.39,465.74,549.8,463.37,547.43,460.78z"/>
		<path d="M575.82,447.38c0-11.8,4.25-18.14,11.3-18.14c7,0,11.25,6.34,11.25,18.14c0,11.8-4.25,18.36-11.25,18.36
			C580.07,465.74,575.82,459.18,575.82,447.38z M593.96,447.38c0-10.31-2.76-14.44-6.84-14.44c-4.08,0-6.84,4.13-6.84,14.44
			s2.76,14.66,6.84,14.66C591.2,462.04,593.96,457.69,593.96,447.38z"/>
	</g>
	<g>
		<path d="M150.82,459.55l2.32-2.98c2.09,2.21,4.85,4.13,8.99,4.13c4.25,0,7.28-2.48,7.28-6.39c0-4.19-2.87-7-11.25-7v-3.47
			c7.44,0,9.98-2.87,9.98-6.56c0-3.36-2.32-5.51-6.06-5.51c-2.92,0-5.4,1.49-7.5,3.53l-2.43-2.87c2.7-2.54,5.95-4.41,10.09-4.41
			c6.12,0,10.53,3.25,10.53,8.93c0,4.25-2.54,6.95-6.34,8.38v0.22c4.25,0.99,7.61,4.08,7.61,8.93c0,6.23-5.18,10.03-11.63,10.03
			C156.78,464.51,153.19,462.14,150.82,459.55z"/>
		<path d="M179.21,446.16c0-11.8,4.25-18.14,11.3-18.14c7,0,11.25,6.34,11.25,18.14s-4.25,18.36-11.25,18.36
			C183.46,464.51,179.21,457.95,179.21,446.16z M197.35,446.16c0-10.31-2.76-14.44-6.84-14.44s-6.84,4.13-6.84,14.44
			c0,10.31,2.76,14.66,6.84,14.66S197.35,456.46,197.35,446.16z"/>
	</g>
	<g>
		<path d="M212.75,384.68l2.32-2.98c2.09,2.21,4.85,4.13,8.99,4.13c4.25,0,7.28-2.48,7.28-6.4c0-4.19-2.87-7-11.25-7v-3.47
			c7.44,0,9.98-2.87,9.98-6.56c0-3.36-2.32-5.51-6.06-5.51c-2.92,0-5.4,1.49-7.5,3.53l-2.43-2.87c2.7-2.54,5.95-4.41,10.09-4.41
			c6.12,0,10.53,3.25,10.53,8.93c0,4.25-2.54,6.95-6.34,8.38v0.22c4.25,0.99,7.61,4.08,7.61,8.93c0,6.23-5.18,10.03-11.63,10.03
			C218.7,389.64,215.12,387.27,212.75,384.68z"/>
		<path d="M241.13,371.28c0-11.8,4.25-18.14,11.3-18.14c7,0,11.25,6.34,11.25,18.14s-4.25,18.36-11.25,18.36
			C245.38,389.64,241.13,383.08,241.13,371.28z M259.27,371.28c0-10.31-2.76-14.44-6.84-14.44s-6.84,4.13-6.84,14.44
			c0,10.31,2.76,14.66,6.84,14.66S259.27,381.59,259.27,371.28z"/>
	</g>
	<g>
		<path d="M29.87,181.28H14.05v-3.03l15.05-22.44h5.07v21.83h4.8v3.64h-4.8v9.7h-4.3V181.28z M29.87,177.64v-10.2
			c0-1.82,0.17-4.85,0.28-6.73h-0.22c-0.88,1.65-1.87,3.2-2.87,4.96l-8.21,11.96H29.87z"/>
		<path d="M42.94,173.28c0-11.8,4.25-18.14,11.3-18.14c7,0,11.25,6.34,11.25,18.14s-4.25,18.36-11.25,18.36
			C47.18,191.64,42.94,185.08,42.94,173.28z M61.07,173.28c0-10.31-2.76-14.44-6.84-14.44s-6.84,4.13-6.84,14.44
			c0,10.31,2.76,14.66,6.84,14.66S61.07,183.59,61.07,173.28z"/>
	</g>
	<g>
		<path d="M428.07,185.28h-15.82v-3.03l15.05-22.44h5.07v21.83h4.8v3.64h-4.8v9.7h-4.3V185.28z M428.07,181.64v-10.2
			c0-1.82,0.17-4.85,0.28-6.73h-0.22c-0.88,1.65-1.87,3.2-2.87,4.96l-8.21,11.96H428.07z"/>
		<path d="M441.13,177.28c0-11.8,4.25-18.14,11.3-18.14c7,0,11.25,6.34,11.25,18.14s-4.25,18.36-11.25,18.36
			C445.38,195.64,441.13,189.08,441.13,177.28z M459.27,177.28c0-10.31-2.76-14.44-6.84-14.44s-6.84,4.13-6.84,14.44
			c0,10.31,2.76,14.66,6.84,14.66S459.27,187.59,459.27,177.28z"/>
	</g>
	<g>
		<path d="M628.07,583.28h-15.82v-3.03l15.05-22.44h5.07v21.83h4.8v3.64h-4.8v9.7h-4.3V583.28z M628.07,579.64v-10.2
			c0-1.82,0.17-4.85,0.28-6.73h-0.22c-0.88,1.65-1.87,3.2-2.87,4.96l-8.21,11.96H628.07z"/>
		<path d="M641.13,575.28c0-11.8,4.25-18.14,11.3-18.14c7,0,11.25,6.34,11.25,18.14s-4.25,18.36-11.25,18.36
			C645.38,593.64,641.13,587.08,641.13,575.28z M659.27,575.28c0-10.31-2.76-14.44-6.84-14.44c-4.08,0-6.84,4.13-6.84,14.44
			c0,10.31,2.76,14.67,6.84,14.67C656.52,589.95,659.27,585.59,659.27,575.28z"/>
	</g>
	<g>
		<path d="M228.07,583.28h-15.82v-3.03l15.05-22.44h5.07v21.83h4.8v3.64h-4.8v9.7h-4.3V583.28z M228.07,579.64v-10.2
			c0-1.82,0.17-4.85,0.28-6.73h-0.22c-0.88,1.65-1.87,3.2-2.87,4.96l-8.21,11.96H228.07z"/>
		<path d="M241.13,575.28c0-11.8,4.25-18.14,11.3-18.14c7,0,11.25,6.34,11.25,18.14s-4.25,18.36-11.25,18.36
			C245.38,593.64,241.13,587.08,241.13,575.28z M259.27,575.28c0-10.31-2.76-14.44-6.84-14.44s-6.84,4.13-6.84,14.44
			c0,10.31,2.76,14.67,6.84,14.67S259.27,585.59,259.27,575.28z"/>
	</g>
	<g>
		<path d="M413.96,576.72c0-14.11,6.4-19.57,13.4-19.57c3.8,0,6.56,1.6,8.49,3.75l-2.54,2.87c-1.38-1.71-3.58-2.81-5.79-2.81
			c-4.91,0-9.1,3.86-9.26,15.05c2.21-2.76,5.35-4.52,8.21-4.52c6.12,0,10.03,3.64,10.03,10.86c0,6.73-4.74,11.3-10.42,11.3
			C419.2,593.64,413.96,588.02,413.96,576.72z M418.37,579.58c0.61,6.84,3.31,10.47,7.72,10.47c3.47,0,6.12-3.09,6.12-7.72
			c0-4.58-2.15-7.44-6.5-7.44C423.44,574.9,420.57,576.27,418.37,579.58z"/>
		<path d="M441.13,575.28c0-11.8,4.25-18.14,11.3-18.14c7,0,11.25,6.34,11.25,18.14s-4.25,18.36-11.25,18.36
			C445.38,593.64,441.13,587.08,441.13,575.28z M459.27,575.28c0-10.31-2.76-14.44-6.84-14.44s-6.84,4.13-6.84,14.44
			c0,10.31,2.76,14.67,6.84,14.67S459.27,585.59,459.27,575.28z"/>
	</g>
	<g>
		<path d="M548.65,648.81c0-14.11,6.39-19.57,13.4-19.57c3.8,0,6.56,1.6,8.49,3.75l-2.54,2.87c-1.38-1.71-3.58-2.81-5.79-2.81
			c-4.91,0-9.1,3.86-9.26,15.05c2.21-2.76,5.35-4.52,8.21-4.52c6.12,0,10.03,3.64,10.03,10.86c0,6.73-4.74,11.3-10.42,11.3
			C553.88,665.74,548.65,660.12,548.65,648.81z M553.06,651.68c0.61,6.84,3.31,10.47,7.72,10.47c3.47,0,6.12-3.09,6.12-7.72
			c0-4.58-2.15-7.44-6.5-7.44C558.13,646.99,555.26,648.37,553.06,651.68z"/>
		<path d="M575.82,647.38c0-11.8,4.25-18.14,11.3-18.14c7,0,11.25,6.34,11.25,18.14c0,11.8-4.25,18.36-11.25,18.36
			C580.07,665.74,575.82,659.18,575.82,647.38z M593.96,647.38c0-10.31-2.76-14.44-6.84-14.44c-4.08,0-6.84,4.13-6.84,14.44
			c0,10.31,2.76,14.66,6.84,14.66C591.2,662.04,593.96,657.69,593.96,647.38z"/>
	</g>
	<g>
		<path d="M351.35,447.59c0-14.11,6.4-19.57,13.4-19.57c3.8,0,6.56,1.6,8.49,3.75l-2.54,2.87c-1.38-1.71-3.58-2.81-5.79-2.81
			c-4.91,0-9.1,3.86-9.26,15.05c2.21-2.76,5.35-4.52,8.21-4.52c6.12,0,10.03,3.64,10.03,10.86c0,6.73-4.74,11.3-10.42,11.3
			C356.59,464.51,351.35,458.89,351.35,447.59z M355.76,450.46c0.61,6.84,3.31,10.47,7.72,10.47c3.47,0,6.12-3.09,6.12-7.72
			c0-4.58-2.15-7.44-6.5-7.44C360.84,445.77,357.97,447.15,355.76,450.46z"/>
		<path d="M378.53,446.16c0-11.8,4.25-18.14,11.3-18.14c7,0,11.25,6.34,11.25,18.14s-4.25,18.36-11.25,18.36
			C382.78,464.51,378.53,457.95,378.53,446.16z M396.67,446.16c0-10.31-2.76-14.44-6.84-14.44s-6.84,4.13-6.84,14.44
			c0,10.31,2.76,14.67,6.84,14.67S396.67,456.46,396.67,446.16z"/>
	</g>
	<g>
		<path d="M547.38,52.62l2.21-3.03c2.09,2.1,4.74,4.02,8.88,4.02c4.3,0,7.66-3.09,7.66-7.99c0-4.85-2.92-7.66-7.44-7.66
			c-2.42,0-3.91,0.72-6.01,2.09l-2.43-1.54l1.16-16.92h17.64v3.97h-13.62l-0.94,10.36c1.65-0.88,3.25-1.43,5.4-1.43
			c5.95,0,10.86,3.42,10.86,11.03s-5.73,11.91-11.85,11.91C553.28,57.41,549.8,55.04,547.38,52.62z"/>
		<path d="M575.82,39.06c0-11.8,4.25-18.14,11.3-18.14c7,0,11.25,6.34,11.25,18.14s-4.25,18.36-11.25,18.36
			C580.07,57.41,575.82,50.85,575.82,39.06z M593.96,39.06c0-10.31-2.76-14.44-6.84-14.44c-4.08,0-6.84,4.13-6.84,14.44
			c0,10.31,2.76,14.66,6.84,14.66C591.2,53.72,593.96,49.36,593.96,39.06z"/>
	</g>
	<g>
		<path d="M548.26,256.09c0-4.58,3.31-7.72,6.62-9.48v-0.22c-2.59-1.82-4.91-4.41-4.91-8.1c0-5.4,4.3-9.04,9.98-9.04
			c6.12,0,9.92,3.91,9.92,9.37c0,3.69-2.65,6.84-4.85,8.49v0.22c3.14,1.82,6.12,4.3,6.12,9.04c0,5.24-4.52,9.37-11.36,9.37
			C553.17,265.74,548.26,261.66,548.26,256.09z M566.78,256.2c0-4.52-4.47-6.12-9.54-8.16c-2.76,1.82-4.85,4.41-4.85,7.61
			c0,3.86,3.2,6.67,7.5,6.67C563.97,262.32,566.78,259.84,566.78,256.2z M565.96,238.84c0-3.42-2.26-6.17-6.12-6.17
			c-3.25,0-5.68,2.21-5.68,5.62c0,4.19,3.86,5.95,8.1,7.61C564.63,243.8,565.96,241.43,565.96,238.84z"/>
		<path d="M575.82,247.38c0-11.8,4.25-18.14,11.3-18.14c7,0,11.25,6.34,11.25,18.14s-4.25,18.36-11.25,18.36
			C580.07,265.74,575.82,259.18,575.82,247.38z M593.96,247.38c0-10.31-2.76-14.44-6.84-14.44c-4.08,0-6.84,4.13-6.84,14.44
			c0,10.31,2.76,14.66,6.84,14.66C591.2,262.04,593.96,257.69,593.96,247.38z"/>
	</g>
</g>
</svg>
