<?xml version="1.0" encoding="utf-8"?>
<!-- Generator: Adobe Adobe Illustrator 24.2.0, SVG Export Plug-In . SVG Version: 6.00 Build 0)  -->
<svg version="1.1" id="Layer_1" xmlns="http://www.w3.org/2000/svg" xmlns:xlink="http://www.w3.org/1999/xlink" x="0px" y="0px"
	 width="1150px" height="1020px" viewBox="0 0 1150 1020" style="enable-background:new 0 0 1150 1020;" xml:space="preserve">
<style type="text/css">
	.st0{fill:#FFFFFF;stroke:#000000;stroke-width:5;stroke-miterlimit:10;}
	.st1{stroke:#000000;stroke-width:14;stroke-miterlimit:10;}
</style>
<g>
	<g>
		<g>
			<polygon class="st0" points="569.58,55.61 479.58,207.61 659.58,207.61 			"/>
			<polygon class="st0" points="479.58,207.61 389.58,359.61 569.58,359.61 			"/>
			<polygon class="st0" points="659.58,207.61 569.58,359.61 749.58,359.61 			"/>
			<polygon class="st0" points="389.58,359.61 299.58,511.61 479.58,511.61 			"/>
			<polygon class="st0" points="569.58,359.61 479.58,511.61 659.58,511.61 			"/>
			<polygon class="st0" points="749.58,359.61 659.58,511.61 839.58,511.61 			"/>
			<polygon class="st0" points="299.58,511.61 209.58,663.61 389.58,663.61 			"/>
			<polygon class="st0" points="479.58,511.61 389.58,663.61 569.58,663.61 			"/>
			<polygon class="st0" points="659.58,511.61 569.58,663.61 749.58,663.61 			"/>
			<polygon class="st0" points="839.58,511.61 749.58,663.61 929.58,663.61 			"/>
			<polygon class="st0" points="209.58,663.61 119.58,815.61 299.58,815.61 			"/>
			<polygon class="st0" points="389.58,663.61 299.58,815.61 479.58,815.61 			"/>
			<polygon class="st0" points="569.58,663.61 479.58,815.61 659.58,815.61 			"/>
			<polygon class="st0" points="749.58,663.61 659.58,815.61 839.58,815.61 			"/>
			<polygon class="st0" points="929.58,663.61 839.58,815.61 1019.58,815.61 			"/>
			<polygon class="st0" points="119.58,815.61 29.58,967.61 209.58,967.61 			"/>
			<polygon class="st0" points="299.58,815.61 209.58,967.61 389.58,967.61 			"/>
			<polygon class="st0" points="479.58,815.61 389.58,967.61 569.58,967.61 			"/>
			<polygon class="st0" points="659.58,815.61 569.58,967.61 749.58,967.61 			"/>
			<polygon class="st0" points="839.58,815.61 749.58,967.61 929.58,967.61 			"/>
			<polygon class="st0" points="1019.58,815.61 929.58,967.61 1109.58,967.61 			"/>
		</g>
	</g>
</g>
<g>
	<g>
		<g>
			<circle class="st1" cx="569.58" cy="55.7" r="5"/>
			<circle class="st1" cx="479.58" cy="207.61" r="5"/>
			<circle class="st1" cx="389.58" cy="359.61" r="5"/>
			<circle class="st1" cx="299.58" cy="511.61" r="5"/>
			<circle class="st1" cx="209.58" cy="663.61" r="5"/>
			<circle class="st1" cx="119.58" cy="815.61" r="5"/>
			<circle class="st1" cx="30.2" cy="967.61" r="5"/>
			<circle class="st1" cx="299.58" cy="815.61" r="5"/>
			<circle class="st1" cx="479.58" cy="815.61" r="5"/>
			<circle class="st1" cx="659.58" cy="815.61" r="5"/>
			<circle class="st1" cx="389.58" cy="663.61" r="5"/>
			<circle class="st1" cx="569.58" cy="663.61" r="5"/>
			<circle class="st1" cx="749.58" cy="663.61" r="5"/>
			<circle class="st1" cx="931.62" cy="663.61" r="5"/>
			<circle class="st1" cx="839.58" cy="815.61" r="5"/>
			<circle class="st1" cx="1019.58" cy="815.61" r="5"/>
			<circle class="st1" cx="1109.58" cy="967.61" r="5"/>
			<circle class="st1" cx="930.25" cy="966.48" r="5"/>
			<circle class="st1" cx="748.92" cy="966.48" r="5"/>
			<circle class="st1" cx="569.58" cy="967.61" r="5"/>
			<circle class="st1" cx="389.58" cy="966.48" r="5"/>
			<circle class="st1" cx="209.58" cy="967.61" r="5"/>
			<circle class="st1" cx="479.58" cy="511.61" r="5"/>
			<circle class="st1" cx="569.58" cy="359.61" r="5"/>
			<circle class="st1" cx="661.62" cy="207.61" r="5"/>
			<circle class="st1" cx="750.55" cy="359.61" r="5"/>
			<circle class="st1" cx="841.62" cy="511.61" r="5"/>
			<circle class="st1" cx="659.58" cy="511.61" r="5"/>
		</g>
	</g>
</g>
</svg>
