<?xml version="1.0" encoding="utf-8"?>
<!-- Generator: Adobe Adobe Illustrator 24.2.0, SVG Export Plug-In . SVG Version: 6.00 Build 0)  -->
<svg version="1.1" id="Layer_1" xmlns="http://www.w3.org/2000/svg" xmlns:xlink="http://www.w3.org/1999/xlink" x="0px" y="0px"
	 width="950px" height="530px" viewBox="0 0 950 530" style="enable-background:new 0 0 950 530;" xml:space="preserve">
<style type="text/css">
	.st0{fill:none;stroke:#000000;stroke-width:4;stroke-linecap:round;stroke-linejoin:round;stroke-miterlimit:10;}
	
		.st1{fill:none;stroke:#000000;stroke-width:4;stroke-linecap:round;stroke-linejoin:round;stroke-miterlimit:10;stroke-dasharray:12,12,12,12,12,12;}
	.st2{fill:#94031B;stroke:#000000;stroke-width:2;stroke-miterlimit:10;}
</style>
<g>
	<g>
		<g>
			<rect x="77.21" y="252.85" class="st0" width="502" height="189.7"/>
			<line class="st0" x1="872.79" y1="103.8" x2="872.79" y2="293.8"/>
			<line class="st0" x1="579.21" y1="442.55" x2="872.79" y2="293.49"/>
			<line class="st0" x1="579.21" y1="252.85" x2="872.79" y2="103.8"/>
			<line class="st1" x1="370.79" y1="103.8" x2="370.79" y2="293.8"/>
			<line class="st1" x1="77.21" y1="442.55" x2="370.79" y2="293.49"/>
			<line class="st0" x1="77.21" y1="252.85" x2="370.79" y2="103.8"/>
			<line class="st0" x1="370.79" y1="103.8" x2="872.79" y2="103.8"/>
			<line class="st1" x1="373.21" y1="293.49" x2="875.21" y2="293.49"/>
		</g>
	</g>
</g>
<g>
	<path d="M58.71,358.5H44.93v-2.64l13.11-19.54h4.42v19.01h4.18v3.17h-4.18v8.45h-3.74V358.5z M58.71,355.33v-8.88
		c0-1.58,0.14-4.22,0.24-5.86h-0.19c-0.77,1.44-1.63,2.78-2.5,4.32l-7.15,10.42H58.71z"/>
</g>
<g>
	<path d="M304.74,481.75l2.21-2.5c1.25,1.44,3.12,2.4,5.04,2.4c4.32,0,7.87-3.31,8.06-13.01c-1.92,2.4-4.66,3.84-7.15,3.84
		c-5.28,0-8.69-3.17-8.69-9.46c0-5.86,4.13-9.84,9.02-9.84c6.05,0,10.61,4.9,10.61,14.74c0,12.29-5.57,17.04-11.71,17.04
		C308.87,484.96,306.42,483.57,304.74,481.75z M313.57,469.5c2.02,0,4.46-1.2,6.38-4.03c-0.48-5.95-2.83-9.12-6.72-9.12
		c-2.98,0-5.28,2.64-5.28,6.67C307.96,467.01,309.83,469.5,313.57,469.5z"/>
</g>
<g>
	<path d="M747.09,390.32c0-3.98,2.88-6.72,5.76-8.26v-0.19c-2.26-1.58-4.27-3.84-4.27-7.06c0-4.7,3.74-7.87,8.69-7.87
		c5.33,0,8.64,3.41,8.64,8.16c0,3.22-2.3,5.95-4.22,7.39v0.19c2.74,1.58,5.33,3.74,5.33,7.87c0,4.56-3.94,8.16-9.89,8.16
		C751.37,398.73,747.09,395.17,747.09,390.32z M763.22,390.42c0-3.94-3.89-5.33-8.3-7.1c-2.4,1.58-4.22,3.84-4.22,6.62
		c0,3.36,2.78,5.81,6.53,5.81C760.78,395.75,763.22,393.59,763.22,390.42z M762.5,375.3c0-2.98-1.97-5.38-5.33-5.38
		c-2.83,0-4.94,1.92-4.94,4.9c0,3.65,3.36,5.18,7.06,6.62C761.35,379.62,762.5,377.56,762.5,375.3z"/>
</g>
<g>
	<path d="M44.93,455.3h12.75c8.69,0,14.77,2.94,14.77,10.46c0,4.25-2.29,8.04-6.28,9.35v0.26c5.1,0.98,8.69,4.38,8.69,10.26
		c0,8.43-6.67,12.55-16.21,12.55H44.93V455.3z M56.76,473.54c7.26,0,10.26-2.68,10.26-7.06c0-4.97-3.4-6.8-10.07-6.8h-6.54v13.86
		H56.76z M57.87,493.8c7.32,0,11.57-2.61,11.57-8.37c0-5.29-4.12-7.71-11.57-7.71h-7.45v16.08H57.87z"/>
</g>
<g>
	<path d="M892.47,48.7h6.54l15.06,44.69H908l-4.22-13.56H887.5l-4.29,13.56h-5.79L892.47,48.7z M888.99,75.2h13.35l-2.11-6.74
		c-1.64-4.97-3.07-9.88-4.5-15.06h-0.27c-1.36,5.18-2.79,10.08-4.36,15.06L888.99,75.2z"/>
</g>
<circle class="st2" cx="77.21" cy="442.55" r="4.44"/>
<circle class="st2" cx="872.79" cy="103.8" r="4.44"/>
</svg>
