<?xml version="1.0" encoding="utf-8"?>
<!-- Generator: Adobe Adobe Illustrator 24.2.0, SVG Export Plug-In . SVG Version: 6.00 Build 0)  -->
<svg version="1.1" id="Layer_1" xmlns="http://www.w3.org/2000/svg" xmlns:xlink="http://www.w3.org/1999/xlink" x="0px" y="0px"
	 width="570px" height="560px" viewBox="0 0 570 560" style="enable-background:new 0 0 570 560;" xml:space="preserve">
<style type="text/css">
	.st0{fill:#C9EEFF;stroke:#0D0394;stroke-width:4;stroke-miterlimit:10;}
</style>
<g>
	<g>
		<g>
			<rect x="32.87" y="26.81" class="st0" width="101" height="101"/>
			<rect x="133.87" y="26.81" class="st0" width="101" height="101"/>
			<rect x="234.87" y="26.81" class="st0" width="101" height="101"/>
			<rect x="335.87" y="26.81" class="st0" width="101" height="101"/>
			<rect x="436.87" y="26.81" class="st0" width="101" height="101"/>
			<rect x="32.87" y="430.81" class="st0" width="101" height="101"/>
			<rect x="133.87" y="430.81" class="st0" width="101" height="101"/>
			<rect x="234.87" y="430.81" class="st0" width="101" height="101"/>
			<rect x="335.87" y="430.81" class="st0" width="101" height="101"/>
			<rect x="436.87" y="430.81" class="st0" width="101" height="101"/>
			<rect x="32.87" y="127.81" class="st0" width="101" height="101"/>
			<rect x="133.87" y="127.81" class="st0" width="101" height="101"/>
			<rect x="234.87" y="127.81" class="st0" width="101" height="101"/>
			<rect x="335.87" y="127.81" class="st0" width="101" height="101"/>
			<rect x="436.87" y="127.81" class="st0" width="101" height="101"/>
			<rect x="32.87" y="228.81" class="st0" width="101" height="101"/>
			<rect x="133.87" y="228.81" class="st0" width="101" height="101"/>
			<rect x="234.87" y="228.81" class="st0" width="101" height="101"/>
			<rect x="335.87" y="228.81" class="st0" width="101" height="101"/>
			<rect x="436.87" y="228.81" class="st0" width="101" height="101"/>
			<rect x="32.87" y="329.81" class="st0" width="101" height="101"/>
			<rect x="133.87" y="329.81" class="st0" width="101" height="101"/>
			<rect x="234.87" y="329.81" class="st0" width="101" height="101"/>
			<rect x="335.87" y="329.81" class="st0" width="101" height="101"/>
			<rect x="436.87" y="329.81" class="st0" width="101" height="101"/>
		</g>
	</g>
</g>
<g>
	<path d="M66.57,99.3l3.65-5.02c3.47,3.47,7.85,6.66,14.69,6.66c7.12,0,12.69-5.11,12.69-13.23c0-8.03-4.84-12.69-12.32-12.69
		c-4.02,0-6.48,1.19-9.95,3.47l-4.02-2.56l1.92-28.02h29.2v6.57H79.89l-1.55,17.16c2.74-1.46,5.38-2.37,8.94-2.37
		c9.86,0,17.98,5.66,17.98,18.25s-9.49,19.71-19.62,19.71C76.33,107.24,70.58,103.32,66.57,99.3z"/>
	<path d="M171.42,99.85h13.32V57.14h-10.68v-4.93c5.38-0.91,9.22-2.37,12.41-4.29h5.84v51.93h11.96v6.3h-32.85V99.85z"/>
	<path d="M266.42,99.3l3.65-5.02c3.47,3.47,7.85,6.66,14.69,6.66c7.12,0,12.69-5.11,12.69-13.23c0-8.03-4.84-12.69-12.32-12.69
		c-4.01,0-6.48,1.19-9.95,3.47l-4.02-2.56l1.92-28.02h29.2v6.57h-22.54l-1.55,17.16c2.74-1.46,5.38-2.37,8.94-2.37
		c9.86,0,17.98,5.66,17.98,18.25s-9.49,19.71-19.62,19.71C276.19,107.24,270.44,103.32,266.42,99.3z"/>
	<path d="M371.28,99.85h13.32V57.14h-10.68v-4.93c5.38-0.91,9.22-2.37,12.41-4.29h5.84v51.93h11.96v6.3h-32.85V99.85z"/>
	<path d="M466.28,99.3l3.65-5.02c3.47,3.47,7.85,6.66,14.69,6.66c7.12,0,12.69-5.11,12.69-13.23c0-8.03-4.84-12.69-12.32-12.69
		c-4.02,0-6.48,1.19-9.95,3.47l-4.02-2.56l1.92-28.02h29.2v6.57H479.6l-1.55,17.16c2.74-1.46,5.38-2.37,8.94-2.37
		c9.86,0,17.98,5.66,17.98,18.25s-9.49,19.71-19.62,19.71C476.04,107.24,470.29,103.32,466.28,99.3z"/>
</g>
<g>
	<path d="M72.5,197.26h13.32v-42.71H75.14v-4.93c5.38-0.91,9.22-2.37,12.41-4.29h5.84v51.93h11.96v6.3H72.5V197.26z"/>
	<path d="M167.5,196.71l3.65-5.02c3.47,3.47,7.85,6.66,14.69,6.66c7.12,0,12.69-5.11,12.69-13.23c0-8.03-4.84-12.69-12.32-12.69
		c-4.01,0-6.48,1.19-9.95,3.47l-4.02-2.56l1.92-28.02h29.2v6.57h-22.54l-1.55,17.16c2.74-1.46,5.38-2.37,8.94-2.37
		c9.86,0,17.98,5.66,17.98,18.25s-9.49,19.71-19.62,19.71C177.26,204.65,171.51,200.73,167.5,196.71z"/>
	<path d="M267.42,196.71l3.65-5.02c3.47,3.47,7.85,6.66,14.69,6.66c7.12,0,12.69-5.11,12.69-13.23c0-8.03-4.84-12.69-12.32-12.69
		c-4.01,0-6.48,1.19-9.95,3.47l-4.02-2.56l1.92-28.02h29.2v6.57h-22.54l-1.55,17.16c2.74-1.46,5.38-2.37,8.94-2.37
		c9.86,0,17.98,5.66,17.98,18.25s-9.49,19.71-19.62,19.71C277.19,204.65,271.44,200.73,267.42,196.71z"/>
	<path d="M367.35,196.71l3.65-5.02c3.47,3.47,7.85,6.66,14.69,6.66c7.12,0,12.69-5.11,12.69-13.23c0-8.03-4.84-12.69-12.32-12.69
		c-4.02,0-6.48,1.19-9.95,3.47l-4.02-2.56l1.92-28.02h29.2v6.57h-22.54l-1.55,17.16c2.74-1.46,5.38-2.37,8.94-2.37
		c9.86,0,17.98,5.66,17.98,18.25s-9.49,19.71-19.62,19.71C377.12,204.65,371.37,200.73,367.35,196.71z"/>
	<path d="M472.21,197.26h13.32v-42.71h-10.68v-4.93c5.38-0.91,9.22-2.37,12.41-4.29h5.84v51.93h11.96v6.3h-32.85V197.26z"/>
</g>
<g>
	<path d="M72.5,403.26h13.32v-42.71H75.14v-4.93c5.38-0.91,9.22-2.37,12.41-4.29h5.84v51.93h11.96v6.3H72.5V403.26z"/>
	<path d="M167.5,402.71l3.65-5.02c3.47,3.47,7.85,6.66,14.69,6.66c7.12,0,12.69-5.11,12.69-13.23c0-8.03-4.84-12.69-12.32-12.69
		c-4.01,0-6.48,1.19-9.95,3.47l-4.02-2.56l1.92-28.02h29.2v6.57h-22.54l-1.55,17.16c2.74-1.46,5.38-2.37,8.94-2.37
		c9.86,0,17.98,5.66,17.98,18.25s-9.49,19.71-19.62,19.71C177.26,410.65,171.51,406.73,167.5,402.71z"/>
	<path d="M267.42,402.71l3.65-5.02c3.47,3.47,7.85,6.66,14.69,6.66c7.12,0,12.69-5.11,12.69-13.23c0-8.03-4.84-12.69-12.32-12.69
		c-4.01,0-6.48,1.19-9.95,3.47l-4.02-2.56l1.92-28.02h29.2v6.57h-22.54l-1.55,17.16c2.74-1.46,5.38-2.37,8.94-2.37
		c9.86,0,17.98,5.66,17.98,18.25s-9.49,19.71-19.62,19.71C277.19,410.65,271.44,406.73,267.42,402.71z"/>
	<path d="M367.35,402.71l3.65-5.02c3.47,3.47,7.85,6.66,14.69,6.66c7.12,0,12.69-5.11,12.69-13.23c0-8.03-4.84-12.69-12.32-12.69
		c-4.02,0-6.48,1.19-9.95,3.47l-4.02-2.56l1.92-28.02h29.2v6.57h-22.54l-1.55,17.16c2.74-1.46,5.38-2.37,8.94-2.37
		c9.86,0,17.98,5.66,17.98,18.25s-9.49,19.71-19.62,19.71C377.12,410.65,371.37,406.73,367.35,402.71z"/>
	<path d="M472.21,403.26h13.32v-42.71h-10.68v-4.93c5.38-0.91,9.22-2.37,12.41-4.29h5.84v51.93h11.96v6.3h-32.85V403.26z"/>
</g>
<g>
	<path d="M67.57,300.78l3.65-5.02c3.47,3.47,7.85,6.66,14.69,6.66c7.12,0,12.69-5.11,12.69-13.23c0-8.03-4.84-12.69-12.32-12.69
		c-4.02,0-6.48,1.19-9.95,3.47l-4.02-2.56l1.92-28.02h29.2v6.57H80.89l-1.55,17.16c2.74-1.46,5.38-2.37,8.94-2.37
		c9.86,0,17.98,5.66,17.98,18.25s-9.49,19.71-19.62,19.71C77.33,308.72,71.58,304.79,67.57,300.78z"/>
	<path d="M172.42,301.32h13.32v-42.71h-10.68v-4.93c5.38-0.91,9.22-2.37,12.41-4.29h5.84v51.93h11.96v6.3h-32.85V301.32z"/>
	<path d="M267.42,300.78l3.65-5.02c3.47,3.47,7.85,6.66,14.69,6.66c7.12,0,12.69-5.11,12.69-13.23c0-8.03-4.84-12.69-12.32-12.69
		c-4.01,0-6.48,1.19-9.95,3.47l-4.02-2.56l1.92-28.02h29.2v6.57h-22.54l-1.55,17.16c2.74-1.46,5.38-2.37,8.94-2.37
		c9.86,0,17.98,5.66,17.98,18.25s-9.49,19.71-19.62,19.71C277.19,308.72,271.44,304.79,267.42,300.78z"/>
	<path d="M372.28,301.32h13.32v-42.71h-10.68v-4.93c5.38-0.91,9.22-2.37,12.41-4.29h5.84v51.93h11.96v6.3h-32.85V301.32z"/>
	<path d="M467.28,300.78l3.65-5.02c3.47,3.47,7.85,6.66,14.69,6.66c7.12,0,12.69-5.11,12.69-13.23c0-8.03-4.84-12.69-12.32-12.69
		c-4.02,0-6.48,1.19-9.95,3.47l-4.02-2.56l1.92-28.02h29.2v6.57H480.6l-1.55,17.16c2.74-1.46,5.38-2.37,8.94-2.37
		c9.86,0,17.98,5.66,17.98,18.25s-9.49,19.71-19.62,19.71C477.04,308.72,471.29,304.79,467.28,300.78z"/>
</g>
<g>
	<path d="M66.57,506.59l3.65-5.02c3.47,3.47,7.85,6.66,14.69,6.66c7.12,0,12.69-5.11,12.69-13.23c0-8.03-4.84-12.69-12.32-12.69
		c-4.02,0-6.48,1.19-9.95,3.47l-4.02-2.55l1.92-28.02h29.2v6.57H79.89l-1.55,17.16c2.74-1.46,5.38-2.37,8.94-2.37
		c9.86,0,17.98,5.66,17.98,18.25c0,12.59-9.49,19.71-19.62,19.71C76.33,514.53,70.58,510.61,66.57,506.59z"/>
	<path d="M171.42,507.14h13.32v-42.71h-10.68v-4.93c5.38-0.91,9.22-2.37,12.41-4.29h5.84v51.93h11.96v6.3h-32.85V507.14z"/>
	<path d="M266.42,506.59l3.65-5.02c3.47,3.47,7.85,6.66,14.69,6.66c7.12,0,12.69-5.11,12.69-13.23c0-8.03-4.84-12.69-12.32-12.69
		c-4.01,0-6.48,1.19-9.95,3.47l-4.02-2.55l1.92-28.02h29.2v6.57h-22.54l-1.55,17.16c2.74-1.46,5.38-2.37,8.94-2.37
		c9.86,0,17.98,5.66,17.98,18.25c0,12.59-9.49,19.71-19.62,19.71C276.19,514.53,270.44,510.61,266.42,506.59z"/>
	<path d="M371.28,507.14h13.32v-42.71h-10.68v-4.93c5.38-0.91,9.22-2.37,12.41-4.29h5.84v51.93h11.96v6.3h-32.85V507.14z"/>
	<path d="M466.28,506.59l3.65-5.02c3.47,3.47,7.85,6.66,14.69,6.66c7.12,0,12.69-5.11,12.69-13.23c0-8.03-4.84-12.69-12.32-12.69
		c-4.02,0-6.48,1.19-9.95,3.47l-4.02-2.55l1.92-28.02h29.2v6.57H479.6l-1.55,17.16c2.74-1.46,5.38-2.37,8.94-2.37
		c9.86,0,17.98,5.66,17.98,18.25c0,12.59-9.49,19.71-19.62,19.71C476.04,514.53,470.29,510.61,466.28,506.59z"/>
</g>
</svg>
