<?xml version="1.0" encoding="utf-8"?>
<!-- Generator: Adobe Adobe Illustrator 24.2.0, SVG Export Plug-In . SVG Version: 6.00 Build 0)  -->
<svg version="1.1" id="Layer_1" xmlns="http://www.w3.org/2000/svg" xmlns:xlink="http://www.w3.org/1999/xlink" x="0px" y="0px"
	 width="724px" height="740px" viewBox="0 0 724 740" style="enable-background:new 0 0 724 740;" xml:space="preserve">
<style type="text/css">
	.st0{fill:#FFFFFF;stroke:#000000;stroke-width:4;stroke-miterlimit:10;}
	.st1{fill:none;stroke:#000000;stroke-width:4;stroke-miterlimit:10;}
</style>
<rect x="40.96" y="49.86" class="st0" width="640" height="640"/>
<line class="st0" x1="40.96" y1="49.86" x2="680.96" y2="689.86"/>
<line class="st1" x1="680.96" y1="49.86" x2="419.53" y2="428.43"/>
<line class="st1" x1="679.52" y1="49.86" x2="168.28" y2="177.18"/>
<line class="st1" x1="40.96" y1="691.07" x2="295.61" y2="304.5"/>
<line class="st1" x1="40.96" y1="689.86" x2="550.25" y2="559.14"/>
<g>
	<g>
		<path d="M165.65,130.48c9.12-8.93,14.4-14.59,14.4-19.54c0-3.5-1.92-5.95-5.81-5.95c-2.54,0-4.75,1.63-6.48,3.65l-2.26-2.16
			c2.54-2.88,5.28-4.75,9.22-4.75c5.66,0,9.22,3.6,9.22,8.98c0,5.95-5.38,11.47-12.82,19.06c1.68-0.14,3.55-0.24,5.14-0.24h9.17
			v3.41h-19.78V130.48z"/>
		<path d="M199.4,121.31c0-7.82,5.23-12.29,11.23-12.29c3.07,0,5.18,1.2,6.82,2.74l-1.97,2.5c-1.3-1.2-2.78-1.92-4.66-1.92
			c-4.22,0-7.3,3.6-7.3,8.98c0,5.33,2.88,8.88,7.15,8.88c2.16,0,4.08-0.96,5.47-2.21l1.73,2.54c-2.11,1.92-4.75,2.98-7.54,2.98
			C204.15,133.5,199.4,129.04,199.4,121.31z"/>
		<path d="M223.01,109.59h4.7l4.56,10.9c0.67,1.73,1.39,3.65,1.97,5.76h0.19c0.67-2.11,1.34-4.03,1.97-5.76l4.37-10.9h4.75v23.33
			h-3.6v-10.56c0-2.06,0.24-5.62,0.43-8.06h-0.19c-0.67,1.92-1.39,3.94-2.06,5.76l-4.32,10.66h-2.98l-4.37-10.66
			c-0.67-1.82-1.44-3.84-2.11-5.76h-0.19c0.24,2.45,0.43,6,0.43,8.06v10.56h-3.55L223.01,109.59L223.01,109.59z"/>
	</g>
	<g>
		<path d="M251.07,107.1c4.43-4.34,7-7.09,7-9.5c0-1.7-0.93-2.89-2.82-2.89c-1.24,0-2.31,0.79-3.15,1.77l-1.1-1.05
			c1.24-1.4,2.57-2.31,4.48-2.31c2.75,0,4.48,1.75,4.48,4.36c0,2.89-2.61,5.58-6.23,9.26c0.82-0.07,1.73-0.12,2.5-0.12h4.46v1.66
			h-9.61v-1.18H251.07z"/>
	</g>
	<g>
		<path d="M557.06,490.28l2.21-2.5c1.25,1.44,3.12,2.4,5.04,2.4c4.32,0,7.87-3.31,8.07-13.01c-1.92,2.4-4.66,3.84-7.15,3.84
			c-5.28,0-8.69-3.17-8.69-9.46c0-5.86,4.13-9.84,9.02-9.84c6.05,0,10.61,4.9,10.61,14.74c0,12.29-5.57,17.04-11.71,17.04
			C561.19,493.5,558.74,492.11,557.06,490.28z M565.89,478.04c2.02,0,4.46-1.2,6.38-4.03c-0.48-5.95-2.83-9.12-6.72-9.12
			c-2.98,0-5.28,2.64-5.28,6.67C560.27,475.55,562.15,478.04,565.89,478.04z"/>
		<path d="M590.27,481.31c0-7.82,5.23-12.29,11.23-12.29c3.07,0,5.18,1.2,6.82,2.74l-1.97,2.5c-1.3-1.2-2.78-1.92-4.66-1.92
			c-4.22,0-7.3,3.6-7.3,8.98c0,5.33,2.88,8.88,7.15,8.88c2.16,0,4.08-0.96,5.47-2.21l1.73,2.54c-2.11,1.92-4.75,2.98-7.54,2.98
			C595.03,493.5,590.27,489.04,590.27,481.31z"/>
		<path d="M613.89,469.59h4.7l4.56,10.9c0.67,1.73,1.39,3.65,1.97,5.76h0.19c0.67-2.11,1.34-4.03,1.97-5.76l4.37-10.9h4.75v23.33
			h-3.6v-10.56c0-2.06,0.24-5.62,0.43-8.06h-0.19c-0.67,1.92-1.39,3.94-2.06,5.76l-4.32,10.66h-2.98l-4.37-10.66
			c-0.67-1.82-1.44-3.84-2.11-5.76h-0.19c0.24,2.45,0.43,6,0.43,8.06v10.56h-3.55L613.89,469.59L613.89,469.59z"/>
	</g>
	<g>
		<path d="M641.94,467.1c4.43-4.34,7-7.09,7-9.5c0-1.7-0.93-2.89-2.82-2.89c-1.24,0-2.31,0.79-3.15,1.77l-1.1-1.05
			c1.24-1.4,2.57-2.31,4.48-2.31c2.75,0,4.48,1.75,4.48,4.36c0,2.89-2.61,5.58-6.23,9.26c0.82-0.07,1.73-0.12,2.5-0.12h4.46v1.66
			h-9.61v-1.18H641.94z"/>
	</g>
	<g>
		<path d="M419.76,666.41h-13.78v-2.64l13.11-19.54h4.42v19.01h4.18v3.17h-4.18v8.45h-3.74v-8.45H419.76z M419.76,663.24v-8.88
			c0-1.58,0.14-4.22,0.24-5.86h-0.19c-0.77,1.44-1.63,2.79-2.5,4.32l-7.15,10.42H419.76z"/>
		<path d="M440.83,663.24c0-7.82,5.23-12.29,11.23-12.29c3.07,0,5.18,1.2,6.82,2.74l-1.97,2.5c-1.3-1.2-2.78-1.92-4.66-1.92
			c-4.22,0-7.3,3.6-7.3,8.98c0,5.33,2.88,8.88,7.15,8.88c2.16,0,4.08-0.96,5.47-2.21l1.73,2.54c-2.11,1.92-4.75,2.98-7.54,2.98
			C445.58,675.44,440.83,670.97,440.83,663.24z"/>
		<path d="M464.44,651.53h4.7l4.56,10.9c0.67,1.73,1.39,3.65,1.97,5.76h0.19c0.67-2.11,1.34-4.03,1.97-5.76l4.37-10.9h4.75v23.33
			h-3.6V664.3c0-2.06,0.24-5.62,0.43-8.06h-0.19c-0.67,1.92-1.39,3.94-2.06,5.76l-4.32,10.66h-2.98L469.86,662
			c-0.67-1.82-1.44-3.84-2.11-5.76h-0.19c0.24,2.45,0.43,6,0.43,8.06v10.56h-3.55L464.44,651.53L464.44,651.53z"/>
	</g>
	<g>
		<path d="M492.5,649.04c4.43-4.34,7-7.09,7-9.5c0-1.7-0.93-2.89-2.82-2.89c-1.24,0-2.31,0.79-3.15,1.77l-1.1-1.05
			c1.24-1.4,2.57-2.31,4.48-2.31c2.75,0,4.48,1.75,4.48,4.36c0,2.89-2.61,5.58-6.23,9.26c0.82-0.07,1.73-0.12,2.5-0.12h4.46v1.66
			h-9.61v-1.18H492.5z"/>
	</g>
	<g>
		<path d="M70.36,327.26l1.92-2.64c1.82,1.82,4.13,3.5,7.73,3.5c3.74,0,6.67-2.69,6.67-6.96c0-4.22-2.54-6.67-6.48-6.67
			c-2.11,0-3.41,0.62-5.23,1.82l-2.11-1.34l1.01-14.74h15.36v3.46H77.37l-0.82,9.02c1.44-0.77,2.83-1.25,4.7-1.25
			c5.18,0,9.46,2.98,9.46,9.6s-4.99,10.37-10.32,10.37C75.5,331.44,72.48,329.37,70.36,327.26z"/>
		<path d="M104.83,319.24c0-7.82,5.23-12.29,11.23-12.29c3.07,0,5.18,1.2,6.82,2.74l-1.97,2.5c-1.3-1.2-2.78-1.92-4.66-1.92
			c-4.22,0-7.3,3.6-7.3,8.98c0,5.33,2.88,8.88,7.15,8.88c2.16,0,4.08-0.96,5.47-2.21l1.73,2.54c-2.11,1.92-4.75,2.98-7.54,2.98
			C109.58,331.44,104.83,326.97,104.83,319.24z"/>
		<path d="M128.44,307.53h4.7l4.56,10.9c0.67,1.73,1.39,3.65,1.97,5.76h0.19c0.67-2.11,1.34-4.03,1.97-5.76l4.37-10.9h4.75v23.33
			h-3.6V320.3c0-2.06,0.24-5.62,0.43-8.06h-0.19c-0.67,1.92-1.39,3.94-2.06,5.76l-4.32,10.66h-2.98L133.86,318
			c-0.67-1.82-1.44-3.84-2.11-5.76h-0.19c0.24,2.45,0.43,6,0.43,8.06v10.56h-3.55L128.44,307.53L128.44,307.53z"/>
	</g>
	<g>
		<path d="M156.5,305.04c4.43-4.34,7-7.09,7-9.5c0-1.7-0.93-2.89-2.82-2.89c-1.24,0-2.31,0.79-3.15,1.77l-1.1-1.05
			c1.24-1.4,2.57-2.31,4.48-2.31c2.75,0,4.48,1.75,4.48,4.36c0,2.89-2.61,5.58-6.23,9.26c0.82-0.07,1.73-0.12,2.5-0.12h4.46v1.66
			h-9.61v-1.18H156.5z"/>
	</g>
</g>
<g>
	<g>
		<path d="M73.61,152.92c0-6.6,5.5-9.78,18.22-11.19c-0.06-3.73-1.28-7.33-6.11-7.33c-3.42,0-6.54,1.53-8.86,3.06l-1.96-3.42
			c2.75-1.83,6.91-3.85,11.67-3.85c7.21,0,10.33,4.83,10.33,12.16v18.28h-4.16l-0.49-3.55h-0.18c-2.81,2.38-6.05,4.28-9.78,4.28
			C77.33,161.35,73.61,158.3,73.61,152.92z M91.82,153.41v-8.07c-10.02,1.16-13.26,3.42-13.26,7.27c0,3.3,2.26,4.58,5.13,4.58
			C86.56,157.2,88.95,155.91,91.82,153.41z"/>
	</g>
	<g>
		<path d="M181.5,262.21h-0.18l-0.49,3.06h-4.03v-43.52h5.07v11.86l-0.18,5.32c2.75-2.32,6.05-4.1,9.35-4.1
			c7.64,0,11.8,5.93,11.8,15.1c0,10.15-6.11,16.08-12.9,16.08C187.18,266,184.13,264.6,181.5,262.21z M197.57,249.99
			c0-6.54-2.26-10.88-7.82-10.88c-2.51,0-5.07,1.34-7.89,4.03v15.53c2.57,2.26,5.26,3.06,7.21,3.06
			C193.97,261.72,197.57,257.32,197.57,249.99z"/>
	</g>
	<g>
		<path d="M307.58,377.48c0-9.96,6.66-15.65,14.3-15.65c3.91,0,6.6,1.53,8.68,3.48l-2.51,3.18c-1.65-1.53-3.54-2.44-5.93-2.44
			c-5.38,0-9.29,4.58-9.29,11.43c0,6.78,3.67,11.31,9.11,11.31c2.75,0,5.2-1.22,6.97-2.81l2.2,3.24c-2.69,2.44-6.05,3.79-9.6,3.79
			C313.64,393.01,307.58,387.32,307.58,377.48z"/>
	</g>
	<g>
		<path d="M426.78,507.94c0-9.66,6.11-15.65,12.9-15.65c3.42,0,5.69,1.28,8.31,3.42l-0.24-5.07v-11.43h5.07v43.52h-4.16l-0.43-3.48
			h-0.18c-2.32,2.26-5.5,4.22-8.99,4.22C431.61,523.47,426.78,517.84,426.78,507.94z M447.74,515.15v-15.53
			c-2.51-2.26-4.77-3.06-7.21-3.06c-4.71,0-8.5,4.52-8.5,11.31c0,7.09,2.93,11.31,8.13,11.31
			C442.91,519.19,445.3,517.84,447.74,515.15z"/>
	</g>
	<g>
		<path d="M567.49,622.79c0-9.66,6.54-15.59,13.33-15.59c7.58,0,11.92,5.38,11.92,13.94c0,1.1-0.06,2.02-0.24,3h-19.99
			c0.43,6.11,4.16,10.15,9.78,10.15c2.87,0,5.38-0.79,7.46-2.2l1.77,3.24c-2.57,1.83-5.75,3.06-9.84,3.06
			C573.73,638.38,567.49,632.63,567.49,622.79z M588.22,620.22c0-5.87-2.75-8.99-7.27-8.99c-4.16,0-7.82,3.3-8.44,8.99H588.22z"/>
	</g>
</g>
</svg>
