<?xml version="1.0" encoding="utf-8"?>
<!-- Generator: Adobe Adobe Illustrator 24.2.0, SVG Export Plug-In . SVG Version: 6.00 Build 0)  -->
<svg version="1.1" id="Layer_1" xmlns="http://www.w3.org/2000/svg" xmlns:xlink="http://www.w3.org/1999/xlink" x="0px" y="0px"
	 width="710px" height="830px" viewBox="0 0 710 830" style="enable-background:new 0 0 710 830;" xml:space="preserve">
<style type="text/css">
	.st0{fill:#FFFFFF;stroke:#07A611;stroke-width:7;stroke-miterlimit:10;}
	.st1{fill:#FFFFFF;stroke:#07A611;stroke-width:7;stroke-miterlimit:10;stroke-dasharray:12,12,12,12,12,12;}
	.st2{fill:#FFFFFF;stroke:#000000;stroke-width:3;stroke-linecap:round;stroke-linejoin:round;stroke-miterlimit:10;}
	
		.st3{fill:#FFFFFF;stroke:#000000;stroke-width:3;stroke-linecap:round;stroke-linejoin:round;stroke-miterlimit:10;stroke-dasharray:12,12,12,12,12,12;}
	.st4{fill:none;stroke:#000000;stroke-width:3;stroke-linecap:round;stroke-linejoin:round;stroke-miterlimit:10;}
</style>
<line class="st0" x1="79.1" y1="599.72" x2="381.98" y2="435.73"/>
<line class="st0" x1="381.98" y1="435.73" x2="586.91" y2="451.45"/>
<line class="st1" x1="79.1" y1="599.72" x2="586.91" y2="451.45"/>
<line class="st2" x1="400.7" y1="101.54" x2="637.06" y2="545.7"/>
<line class="st2" x1="364.45" y1="748.51" x2="637.06" y2="545.7"/>
<line class="st3" x1="79.1" y1="599.72" x2="637.06" y2="545.7"/>
<polygon class="st4" points="400.7,101.54 79.1,599.72 364.45,748.51 "/>
<g>
	<g>
		<g>
			<g>
				<path d="M360.68,762.19h7.55l17.38,51.58h-7l-4.88-15.65h-18.79l-4.95,15.65h-6.68L360.68,762.19z M356.67,792.78h15.41
					l-2.44-7.78c-1.89-5.74-3.54-11.4-5.19-17.38h-0.31c-1.57,5.98-3.22,11.64-5.03,17.38L356.67,792.78z"/>
			</g>
			<g>
				<path d="M653.16,563.82c0-16.59,9.75-26.73,22.88-26.73c6.29,0,11.17,2.99,14.23,6.37l-3.62,4.09
					c-2.75-2.83-6.13-4.64-10.54-4.64c-9.67,0-16.12,7.94-16.12,20.76c0,12.97,6.13,21.07,15.88,21.07c4.95,0,8.65-1.97,11.95-5.58
					l3.62,3.93c-4.17,4.8-9.2,7.47-15.8,7.47C662.75,590.56,653.16,580.65,653.16,563.82z"/>
			</g>
			<g>
				<path d="M608.15,400.23h29.72v5.58h-23.12v17.38h19.66v5.58h-19.66v23.04h-6.6V400.23z"/>
			</g>
			<g>
				<path d="M383.16,73.05l3.7-4.32c3.77,3.85,9.04,6.21,14.47,6.21c6.76,0,10.77-3.38,10.77-8.33c0-5.27-3.77-6.92-8.57-9.04
					l-7.47-3.3c-4.8-2.04-10.38-5.66-10.38-13.29c0-7.86,6.84-13.68,16.2-13.68c6.29,0,11.64,2.59,15.25,6.21l-3.62,4.4
					c-3.15-2.99-7.15-4.8-11.64-4.8c-5.74,0-9.51,2.91-9.51,7.47c0,4.95,4.48,6.84,8.49,8.49l7.39,3.22
					c5.98,2.52,10.61,6.13,10.61,13.76c0,8.18-6.76,14.7-17.61,14.7C393.85,80.75,387.64,77.84,383.16,73.05z"/>
			</g>
			<g>
				<path d="M24.68,577.32h15.33c10.46,0,17.77,3.54,17.77,12.58c0,5.11-2.75,9.67-7.55,11.24v0.31
					c6.13,1.18,10.46,5.27,10.46,12.34c0,10.14-8.02,15.1-19.5,15.1H24.68V577.32z M38.91,599.26c8.73,0,12.34-3.22,12.34-8.49
					c0-5.98-4.09-8.18-12.11-8.18h-7.86v16.67H38.91z M40.25,623.64c8.81,0,13.92-3.15,13.92-10.06c0-6.37-4.95-9.28-13.92-9.28
					h-8.96v19.34H40.25z"/>
			</g>
			<g>
				<path d="M318.7,368.42h29.72v5.58H325.3v16.12h19.5v5.58h-19.5v18.71h23.9V420H318.7V368.42z"/>
			</g>
		</g>
	</g>
</g>
</svg>
