<?xml version="1.0" encoding="utf-8"?>
<!-- Generator: Adobe Adobe Illustrator 24.2.0, SVG Export Plug-In . SVG Version: 6.00 Build 0)  -->
<svg version="1.1" id="Layer_1" xmlns="http://www.w3.org/2000/svg" xmlns:xlink="http://www.w3.org/1999/xlink" x="0px" y="0px"
	 width="800px" height="694px" viewBox="0 0 800 694" style="enable-background:new 0 0 800 694;" xml:space="preserve">
<style type="text/css">
	.st0{fill:none;stroke:#000000;stroke-width:6;stroke-miterlimit:10;}
	.st1{fill:none;stroke:#000000;stroke-width:6;stroke-linecap:round;stroke-linejoin:round;stroke-miterlimit:10;}
	.st2{stroke:#000000;stroke-miterlimit:10;}
	.st3{font-family:'STIXTwoMath-Regular';}
	.st4{font-size:96.1899px;}
</style>
<g>
	<g>
		<g>
			<circle class="st0" cx="339.15" cy="280.25" r="200"/>
			<circle class="st0" cx="641.15" cy="280.25" r="100"/>
			<line class="st0" x1="139.55" y1="267.48" x2="139.55" y2="579.91"/>
			<line class="st0" x1="741.15" y1="285.48" x2="741.15" y2="480.25"/>
			<rect x="95.55" y="580.62" class="st0" width="88" height="88"/>
			<rect x="705.84" y="480.25" class="st0" width="68.16" height="68.16"/>
			<g>
				<g>
					<g>
						<line class="st1" x1="139.15" y1="509.39" x2="120.65" y2="536.34"/>
						<line class="st1" x1="139.15" y1="509.39" x2="157.65" y2="536.34"/>
					</g>
				</g>
			</g>
		</g>
	</g>
</g>
<circle class="st2" cx="339.15" cy="280.25" r="12.77"/>
<circle class="st2" cx="641.15" cy="280.25" r="12.77"/>
<g>
	<g>
		<g>
			<g>
				<path d="M56.06,512.47l-0.34-1.37c0.57-3.55,0.92-8.13,0.92-13.97c0-16.61-2.63-31.61-9.85-31.61c-3.55,0-5.61,2.29-7.45,4.7
					l-1.95-1.15c2.29-6.64,6.3-11.68,12.94-11.68c6.64,0,11.34,4.12,11.34,26.11c0,6.53-0.34,15.35-0.57,21.3l0.92,0.34
					c7.79-8.71,16.84-20.5,16.84-33.9c0-6.41-2.06-10.31-3.78-12.71l0.8-1.15c4.58,0,13.06,2.52,13.06,14.09
					c0,14.89-13.74,30.12-25.66,41.58L56.06,512.47z"/>
			</g>
			<g>
				<path d="M81.03,532.62v-1.32c4.44,0,6.09-0.8,6.09-3.16v-19.97c0-1.65-0.38-2.31-1.56-2.31c-0.94,0-3.35,0.28-4.82,0.76v-1.56
					l9.16-2.6h1.37v25.69c0,2.31,1.75,3.16,6.09,3.16v1.32H81.03z"/>
			</g>
		</g>
	</g>
</g>
<g>
	<g>
		<path d="M124.79,103.18H85.34v-3.4l15.22-15.22c9.91-10.21,14.92-16.52,14.92-27.03c0-7.51-4.81-12.32-12.52-12.32
			c-6.51,0-10.91,2.3-14.62,9.81l-2.4-1c3.1-9.71,9.91-15.32,19.62-15.32c11.31,0,19.22,6.81,19.22,17.32
			c0,8.91-5.71,15.82-16.32,26.53L95.25,95.07v0.5l7.01-0.3h13.92c5.31,0,6.61-2.1,8.91-8.11h2.9L124.79,103.18z"/>
		<path d="M168.94,71.34v0.4c3.4,2,7.31,7.61,18.32,23.33c3.2,4.41,5.71,5.11,10.31,5.11v3h-16.52
			c-10.91-16.52-13.82-20.83-17.92-26.83c-2-3-3.1-3.3-6.71-3.3h-2.8v17.72c0,8.31,1.3,9.41,9.91,9.41v3H135.4v-3
			c7.51,0,8.91-1,8.91-9.41V47.81c0-5.51-0.9-7.41-8.91-7.41v-3h24.63c15.02,0,25.83,3.7,25.83,16.42
			C185.86,65.03,177.05,69.43,168.94,71.34z M153.62,69.13l3.8,0.1c11.01-0.5,18.32-4.41,18.32-15.02c0-8.01-4.71-12.92-15.52-12.92
			c-2.2,0-4.51,0.1-6.61,0.3V69.13z"/>
	</g>
	<g>
		<path d="M562.96,128.36v0.4c3.4,2,7.31,7.61,18.32,23.33c3.2,4.41,5.71,5.11,10.31,5.11v3h-16.52
			c-10.91-16.52-13.82-20.83-17.92-26.83c-2-3-3.1-3.3-6.71-3.3h-2.8v17.72c0,8.31,1.3,9.41,9.91,9.41v3h-28.14v-3
			c7.51,0,8.91-1,8.91-9.41v-42.96c0-5.51-0.9-7.41-8.91-7.41v-3h24.63c15.02,0,25.83,3.7,25.83,16.42
			C579.88,122.05,571.07,126.46,562.96,128.36z M547.64,126.16l3.8,0.1c11.01-0.5,18.32-4.41,18.32-15.02
			c0-8.01-4.71-12.92-15.52-12.92c-2.2,0-4.51,0.1-6.61,0.3V126.16z"/>
	</g>
</g>
<g>
	<text transform="matrix(1.0333 0 0 1 189.777 659.5285)" class="st3 st4">1</text>
	<text transform="matrix(1.0333 0 0 1 630.5798 547.0695)" class="st3 st4">2</text>
</g>
</svg>
