<?xml version="1.0" encoding="utf-8"?>
<!-- Generator: Adobe Adobe Illustrator 24.2.0, SVG Export Plug-In . SVG Version: 6.00 Build 0)  -->
<svg version="1.1" id="Layer_1" xmlns="http://www.w3.org/2000/svg" xmlns:xlink="http://www.w3.org/1999/xlink" x="0px" y="0px"
	 width="545px" height="453px" viewBox="0 0 545 453" style="enable-background:new 0 0 545 453;" xml:space="preserve">
<style type="text/css">
	.st0{fill:#FFFFFF;stroke:#000000;stroke-width:3;stroke-linecap:round;stroke-miterlimit:10;}
	.st1{fill:#FFFFFF;stroke:#005E0B;stroke-width:3;stroke-linecap:round;stroke-linejoin:round;stroke-miterlimit:10;}
	.st2{stroke:#000000;stroke-width:3;stroke-linecap:round;stroke-linejoin:round;stroke-miterlimit:10;}
</style>
<path class="st0" d="M142.6,257.61L127.47,85.23c-0.55-6.32,4.12-11.88,10.43-12.44l325.79-28.6c6.32-0.55,11.88,4.12,12.44,10.43
	L491.26,227c0.55,6.32-4.12,11.88-10.43,12.44l-325.79,28.6C148.72,268.59,143.15,263.92,142.6,257.61z"/>
<path class="st0" d="M129.29,289.37l-15.13-172.38c-0.55-6.32,4.12-11.88,10.43-12.44l325.79-28.6c6.32-0.55,11.88,4.12,12.44,10.43
	l15.13,172.38c0.55,6.32-4.12,11.88-10.43,12.44l-325.79,28.6C135.41,300.36,129.85,295.69,129.29,289.37z"/>
<path class="st0" d="M115.81,319.15l-15.13-172.38c-0.55-6.32,4.12-11.88,10.43-12.44l325.79-28.6c6.32-0.55,11.88,4.12,12.44,10.43
	l15.13,172.38c0.55,6.32-4.12,11.88-10.43,12.44l-325.79,28.6C121.93,330.14,116.36,325.47,115.81,319.15z"/>
<path class="st0" d="M179.81,359.15l-15.13-172.38c-0.55-6.32,4.12-11.88,10.43-12.44l325.79-28.6c6.32-0.55,11.88,4.12,12.44,10.43
	l15.13,172.38c0.55,6.32-4.12,11.88-10.43,12.44l-325.79,28.6C185.93,370.14,180.36,365.47,179.81,359.15z"/>
<g>
	<path d="M234.81,261.86c1.48-0.13,2.87-0.56,4.15-1.28c1.29-0.72,2.33-1.54,3.14-2.48c0.75-0.9,1.31-1.88,1.68-2.95
		c0.36-1.07,0.49-2.2,0.39-3.4c-0.08-0.88-0.29-1.68-0.64-2.4c-0.35-0.72-0.85-1.29-1.49-1.72c-1.13-0.79-2.5-1.11-4.09-0.97
		c-1.31,0.12-2.56,0.5-3.76,1.13c-1.19,0.64-2.25,1.42-3.18,2.33c-0.87,0.88-1.51,1.85-1.94,2.91c-0.42,1.06-0.59,2.09-0.5,3.08
		c0.11,1.25,0.52,2.24,1.21,2.95c0.69,0.71,1.64,1.02,2.84,0.91c1.34-0.12,2.67-0.84,3.99-2.17c1.03-1.04,1.78-2.41,2.26-4.12
		l0.56-0.01c-0.53,1.83-1.38,3.36-2.57,4.58c-1.43,1.42-2.98,2.21-4.66,2.35c-0.6,0.05-1.18,0.03-1.75-0.06
		c-0.57-0.09-1.07-0.28-1.49-0.56c-0.52-0.33-0.95-0.77-1.28-1.33c-0.34-0.56-0.54-1.18-0.6-1.87c-0.11-1.2,0.17-2.46,0.83-3.78
		c0.66-1.32,1.67-2.58,3.03-3.76c1.2-1.03,2.47-1.79,3.81-2.28c1.34-0.49,2.81-0.81,4.44-0.96c0.88-0.08,1.76-0.04,2.64,0.11
		c0.88,0.15,1.63,0.41,2.27,0.79c0.79,0.45,1.42,1.07,1.89,1.86c0.47,0.79,0.75,1.66,0.84,2.6c0.11,1.23-0.05,2.38-0.47,3.47
		c-0.42,1.09-1.06,2.08-1.91,2.97c-0.85,0.89-1.9,1.68-3.13,2.35c-1.23,0.67-2.61,1.19-4.13,1.55l0.01,0.09
		c1.05-0.09,1.91-0.1,2.56-0.01c0.65,0.09,1.22,0.28,1.71,0.58c1.19,0.76,1.85,1.92,1.99,3.49c0.14,1.57-0.2,3.13-1,4.68
		c-0.81,1.55-2.02,2.95-3.64,4.18c-1.24,0.94-2.71,1.74-4.42,2.38c-1.71,0.64-3.46,1.04-5.26,1.2c-1.17,0.1-2.24,0.06-3.2-0.15
		s-1.8-0.53-2.5-0.98c-0.7-0.46-1.27-1.01-1.7-1.68s-0.69-1.41-0.76-2.24c-0.05-0.57,0.01-1.12,0.2-1.63
		c0.18-0.52,0.44-0.97,0.78-1.36s0.73-0.71,1.18-0.97c0.45-0.25,0.92-0.4,1.41-0.45c0.66-0.06,1.21-0.02,1.67,0.11
		c0.46,0.13,0.91,0.42,1.35,0.87l-0.03,0.17c-0.21-0.04-0.42-0.06-0.63-0.07c-0.22-0.01-0.44,0-0.67,0.02
		c-0.83,0.07-1.51,0.42-2.06,1.05c-0.55,0.62-0.77,1.53-0.66,2.73c0.05,0.6,0.23,1.16,0.54,1.68c0.31,0.52,0.72,0.96,1.24,1.33
		c0.52,0.37,1.15,0.65,1.89,0.84c0.73,0.19,1.57,0.25,2.51,0.16c1.45-0.13,2.8-0.44,4.03-0.94c1.23-0.5,2.39-1.25,3.48-2.27
		c1.27-1.21,2.21-2.52,2.81-3.96c0.61-1.43,0.85-2.79,0.74-4.07c-0.07-0.74-0.21-1.36-0.42-1.86c-0.22-0.5-0.5-0.93-0.85-1.3
		c-0.41-0.42-0.91-0.72-1.5-0.88c-0.59-0.16-1.21-0.21-1.87-0.16c-0.26,0.02-0.54,0.06-0.85,0.1s-0.58,0.1-0.8,0.18L234.81,261.86z"
		/>
	<path d="M261.87,259.88l2.69-0.24l-3.66,6.79l6.42-0.57l3.79-6.8l2.95-0.26l-4.73,7.84c-0.67,1.15-1.18,2.09-1.52,2.81
		c-0.51,1.05-0.81,1.83-0.89,2.32c-0.09,0.5-0.12,0.83-0.1,1c0.04,0.48,0.19,0.82,0.43,1c0.25,0.18,0.51,0.26,0.8,0.23
		s0.63-0.12,1.03-0.29c0.4-0.17,0.87-0.44,1.39-0.83c0.53-0.39,1.11-0.92,1.75-1.58c0.65-0.66,1.38-1.5,2.21-2.52
		c1.37-1.67,2.96-4,4.77-6.98l0.44,0.09c-1.75,2.97-3.38,5.39-4.91,7.25c-2.8,3.44-5.09,5.24-6.89,5.4c-0.88,0.08-1.6-0.09-2.13-0.5
		c-0.54-0.41-0.84-0.97-0.9-1.69c-0.02-0.26-0.01-0.57,0.02-0.93c0.04-0.36,0.13-0.75,0.26-1.17c0.12-0.3,0.27-0.67,0.46-1.12
		c0.19-0.45,0.38-0.84,0.58-1.17l0.85-1.54l-6.33,0.56l-4.27,8.23l-2.65,0.24L261.87,259.88z"/>
	<path d="M298.57,260.53c-0.62,0.83-1.33,1.51-2.14,2.04c-0.82,0.53-1.64,0.83-2.46,0.91c-0.8,0.07-1.5-0.04-2.1-0.35
		c-0.6-0.3-1.08-0.69-1.44-1.14l-0.09,0.01c-0.19,1.11-0.61,2.31-1.27,3.6c-0.66,1.29-1.48,2.5-2.46,3.62
		c-0.98,1.12-2.08,2.08-3.3,2.88s-2.5,1.26-3.84,1.38c-1.23,0.11-2.18-0.16-2.88-0.82c-0.69-0.66-1.09-1.58-1.2-2.78
		c-0.06-0.63,0.04-1.37,0.27-2.22c0.24-0.85,0.6-1.73,1.08-2.62c0.48-0.89,1.06-1.78,1.75-2.66c0.68-0.88,1.44-1.68,2.26-2.4
		c0.83-0.72,1.71-1.32,2.66-1.79s1.92-0.75,2.92-0.84c1.17-0.1,2.1,0.16,2.81,0.79s1.13,1.48,1.28,2.56
		c0.12,0.65,0.48,1.23,1.08,1.74c0.61,0.51,1.39,0.72,2.36,0.63c0.86-0.08,1.64-0.36,2.36-0.86s1.37-1.11,1.97-1.86L298.57,260.53z
		 M277.79,270.7c0.07,0.74,0.26,1.31,0.58,1.71s0.77,0.58,1.34,0.53c0.77-0.07,1.51-0.34,2.23-0.82c0.72-0.48,1.4-1.09,2.04-1.82
		c0.64-0.73,1.22-1.55,1.74-2.46c0.52-0.91,0.96-1.84,1.32-2.79c0.36-0.95,0.63-1.87,0.81-2.77c0.18-0.89,0.24-1.69,0.17-2.41
		c-0.05-0.6-0.25-1.09-0.59-1.48c-0.33-0.39-0.82-0.55-1.44-0.5c-0.6,0.05-1.22,0.3-1.87,0.75c-0.65,0.45-1.3,1.01-1.94,1.7
		c-0.64,0.69-1.24,1.48-1.79,2.36c-0.55,0.88-1.04,1.79-1.46,2.72c-0.42,0.93-0.73,1.85-0.94,2.76
		C277.79,269.09,277.73,269.93,277.79,270.7z"/>
	<path d="M298.04,262.3c-0.93,1.81-1.62,3.28-2.08,4.41c-0.46,1.13-0.66,2.06-0.59,2.77c0.06,0.66,0.27,1.15,0.63,1.47
		c0.36,0.33,0.87,0.46,1.52,0.4c0.8-0.07,1.81-0.58,3.03-1.54c1.22-0.96,2.38-2.33,3.49-4.13c0.35-0.58,0.69-1.17,1-1.79
		c0.32-0.62,0.59-1.22,0.81-1.8s0.39-1.13,0.5-1.66c0.11-0.53,0.15-1,0.11-1.43c-0.04-0.46-0.14-0.8-0.31-1.03
		c-0.16-0.23-0.27-0.57-0.31-1.03c-0.04-0.49,0.05-0.84,0.27-1.06c0.22-0.22,0.48-0.34,0.76-0.37c0.48-0.04,0.89,0.17,1.22,0.62
		c0.33,0.46,0.53,1.15,0.61,2.06c0.03,0.37,0.05,0.69,0.04,0.97c0,0.27-0.02,0.57-0.05,0.89c0.19,0.21,0.58,0.48,1.17,0.8
		c0.59,0.32,1.34,0.44,2.25,0.36c0.91-0.08,1.68-0.38,2.31-0.9c0.63-0.51,1.15-1.08,1.55-1.69l0.33,0.27
		c-0.44,0.58-0.99,1.17-1.65,1.74c-0.67,0.58-1.51,0.91-2.54,1c-0.68,0.06-1.33-0.01-1.94-0.22c-0.61-0.2-1.14-0.47-1.6-0.81
		c-0.3,1.21-0.73,2.33-1.32,3.37s-1.29,2.03-2.13,2.97c-1.57,1.75-3.02,2.98-4.37,3.71s-2.59,1.14-3.72,1.24
		c-1,0.09-1.87-0.15-2.61-0.72c-0.71-0.54-1.11-1.34-1.21-2.39c-0.04-0.51,0.04-1.15,0.26-1.9s0.5-1.53,0.85-2.34
		c0.34-0.81,0.71-1.6,1.08-2.38c0.38-0.78,0.71-1.44,1.01-1.99l5.57-10.54c0.64-1.18,1.35-2.28,2.12-3.31
		c0.77-1.03,1.74-2.07,2.91-3.13c1.04-0.96,2.08-1.69,3.12-2.2c1.05-0.51,2.02-0.81,2.94-0.89c0.97-0.09,1.63,0,1.98,0.25
		c0.35,0.26,0.55,0.67,0.61,1.24c0.07,0.77-0.18,1.65-0.73,2.65s-1.39,2.08-2.49,3.24c-0.84,0.91-1.77,1.82-2.79,2.75
		s-2.07,1.82-3.14,2.69l-6.27,5.13L298.04,262.3z M306.07,252.79c0.94-0.77,1.89-1.66,2.85-2.65c0.96-0.99,1.77-1.97,2.43-2.95
		c0.66-0.98,1.18-1.94,1.55-2.88s0.53-1.78,0.46-2.52c-0.04-0.43-0.16-0.72-0.36-0.87c-0.2-0.15-0.47-0.22-0.81-0.19
		c-0.54,0.05-1.12,0.31-1.74,0.78c-0.62,0.47-1.22,1.06-1.8,1.75c-0.59,0.7-1.13,1.47-1.65,2.3c-0.51,0.84-0.95,1.63-1.32,2.38
		l-4.95,9.23L306.07,252.79z"/>
	<path d="M320.59,254.64c-0.98,1.61-1.92,3.14-2.82,4.6s-1.71,2.8-2.4,4.01c-0.7,1.21-1.24,2.26-1.64,3.14
		c-0.4,0.88-0.57,1.57-0.53,2.05c0.04,0.46,0.18,0.78,0.43,0.97c0.25,0.19,0.56,0.27,0.93,0.24c0.54-0.05,1.12-0.27,1.73-0.67
		c0.61-0.4,1.23-0.9,1.85-1.5s1.22-1.26,1.81-1.97c0.58-0.71,1.12-1.42,1.62-2.11c0.5-0.69,0.93-1.33,1.3-1.9
		c0.36-0.58,0.63-1.03,0.8-1.37l3.25-6.07l2.95-0.26c-1.35,2.25-2.5,4.15-3.43,5.71c-0.94,1.56-1.7,2.89-2.28,3.97
		s-0.98,1.96-1.21,2.63c-0.23,0.67-0.32,1.24-0.28,1.73c0.03,0.34,0.16,0.63,0.38,0.85c0.22,0.23,0.52,0.32,0.89,0.29
		c0.57-0.05,1.21-0.32,1.91-0.79c0.71-0.48,1.43-1.09,2.17-1.83c0.74-0.74,1.46-1.57,2.17-2.48c0.71-0.91,1.38-1.81,2-2.7
		c0.62-0.89,1.19-1.72,1.7-2.5c0.5-0.78,0.89-1.41,1.17-1.89l0.44,0.09c-0.3,0.52-0.7,1.18-1.2,1.98c-0.5,0.81-1.07,1.66-1.71,2.57
		c-0.64,0.9-1.32,1.83-2.04,2.77s-1.47,1.79-2.25,2.55c-0.78,0.76-1.56,1.4-2.33,1.91s-1.52,0.8-2.23,0.87
		c-0.8,0.07-1.45-0.09-1.96-0.49c-0.51-0.4-0.8-0.97-0.86-1.71c-0.05-0.57-0.01-1.13,0.13-1.67c0.14-0.54,0.24-0.89,0.32-1.04
		l-0.09-0.08c-0.54,0.74-1.11,1.45-1.71,2.13c-0.6,0.69-1.21,1.29-1.82,1.82c-0.61,0.53-1.24,0.97-1.89,1.31
		c-0.64,0.34-1.29,0.55-1.95,0.6c-0.91,0.08-1.59-0.07-2.02-0.45c-0.44-0.38-0.68-0.85-0.73-1.42c-0.06-0.71,0.06-1.5,0.37-2.36
		c0.31-0.86,0.76-1.83,1.36-2.92c0.59-1.09,1.31-2.32,2.15-3.68c0.84-1.37,1.76-2.93,2.75-4.69L320.59,254.64z"/>
	<path d="M356.42,251.45c-0.83,1.37-1.58,2.62-2.25,3.76c-0.67,1.14-1.3,2.18-1.88,3.12c-1.17,1.97-1.99,3.51-2.45,4.62
		c-0.46,1.1-0.67,1.94-0.62,2.51c0.08,0.86,0.54,1.24,1.4,1.17c0.54-0.05,1.34-0.46,2.39-1.23c1.05-0.77,2.31-2.08,3.79-3.94
		c0.72-0.93,1.49-1.97,2.31-3.14s1.65-2.46,2.5-3.89l0.44,0.09c-1.72,2.91-3.35,5.31-4.88,7.2c-0.88,1.08-1.66,1.97-2.35,2.67
		c-0.69,0.69-1.31,1.24-1.88,1.63c-0.57,0.39-1.09,0.68-1.56,0.85c-0.47,0.17-0.92,0.28-1.35,0.31c-0.74,0.07-1.36-0.12-1.86-0.54
		s-0.78-1.01-0.85-1.76c-0.04-0.4-0.01-0.8,0.07-1.19c0.08-0.4,0.25-0.89,0.51-1.49l-0.09-0.04c-0.51,0.68-1.03,1.32-1.55,1.93
		c-0.52,0.61-1.06,1.17-1.62,1.67c-0.69,0.64-1.39,1.16-2.1,1.57s-1.44,0.64-2.18,0.71c-0.68,0.06-1.27-0.1-1.77-0.49
		c-0.49-0.39-0.78-0.98-0.85-1.78c-0.04-0.4,0.02-0.83,0.17-1.29c0.15-0.46,0.33-0.88,0.55-1.28l-0.09-0.04
		c-0.67,0.89-1.29,1.68-1.86,2.36c-0.57,0.68-1.12,1.26-1.66,1.72c-0.53,0.46-1.06,0.83-1.58,1.09c-0.52,0.26-1.05,0.42-1.6,0.46
		c-1,0.09-1.79-0.14-2.39-0.69c-0.31-0.29-0.56-0.64-0.74-1.05c-0.18-0.42-0.29-0.86-0.34-1.35c-0.07-0.77,0.09-1.46,0.46-2.07
		s0.88-0.94,1.51-1c0.48-0.04,0.86,0.06,1.13,0.31c0.27,0.25,0.42,0.56,0.45,0.93c0.08,0.91-0.33,1.41-1.25,1.49
		c-0.2,0.02-0.4-0.01-0.59-0.1c-0.19-0.08-0.33-0.22-0.4-0.42c-0.21,0.25-0.33,0.49-0.37,0.72c-0.04,0.23-0.05,0.44-0.03,0.61
		c0.02,0.26,0.1,0.53,0.22,0.82c0.13,0.29,0.3,0.54,0.52,0.75c0.47,0.42,1.04,0.6,1.73,0.54c1.31-0.12,2.68-0.97,4.1-2.56
		c1.42-1.59,3.08-3.94,4.95-7.04c0.58-0.91,1.16-1.86,1.73-2.85s1.2-2.05,1.87-3.21l2.9-0.39c-0.98,1.61-1.84,3.01-2.58,4.2
		c-0.74,1.19-1.39,2.25-1.94,3.19c-0.57,1-1.05,1.85-1.43,2.54s-0.68,1.29-0.9,1.78s-0.37,0.92-0.45,1.27
		c-0.08,0.35-0.11,0.67-0.09,0.96c0.04,0.4,0.18,0.69,0.44,0.87c0.26,0.18,0.56,0.25,0.9,0.22c0.57-0.05,1.17-0.28,1.79-0.68
		s1.29-0.96,2-1.69c0.61-0.63,1.23-1.35,1.88-2.17c0.64-0.82,1.31-1.72,2-2.7c0.82-1.17,1.61-2.46,2.37-3.9
		c0.76-1.43,1.54-2.92,2.32-4.45L356.42,251.45z"/>
	<path d="M381.43,240.86c-1.31,2.44-2.67,4.85-4.1,7.22c-1.43,2.37-2.78,4.79-4.05,7.26l0.09,0.08c0.38-0.61,0.82-1.27,1.33-1.99
		s1.07-1.4,1.67-2.04c0.6-0.64,1.27-1.19,2.01-1.64c0.74-0.45,1.5-0.72,2.3-0.79c0.91-0.08,1.7,0.09,2.37,0.52
		c0.67,0.43,1.06,1.24,1.17,2.44c0.07,0.74,0.03,1.46-0.11,2.14c-0.14,0.69-0.35,1.34-0.62,1.95c-0.28,0.61-0.6,1.19-0.97,1.72
		c-0.37,0.54-0.75,1.04-1.14,1.5l0.09,0.08c2.02-0.55,3.82-1.42,5.39-2.59c1.58-1.18,3.1-2.86,4.57-5.06l0.36,0.14
		c-1.14,1.68-2.23,3.02-3.26,4s-2,1.74-2.9,2.26c-0.9,0.53-1.75,0.91-2.53,1.15c-0.78,0.24-1.52,0.48-2.22,0.71
		c-0.45,0.42-0.96,0.91-1.53,1.47c-0.57,0.57-1.17,1.12-1.81,1.65c-0.64,0.53-1.32,1-2.03,1.39c-0.71,0.39-1.45,0.63-2.22,0.69
		c-0.4,0.04-0.8-0.04-1.21-0.22s-0.63-0.51-0.67-1c-0.05-0.6,0.19-1.12,0.74-1.58c0.55-0.45,1.23-0.83,2.05-1.15
		c0.82-0.32,1.68-0.58,2.58-0.79c0.9-0.21,1.66-0.37,2.28-0.48c0.33-0.46,0.67-1.01,0.99-1.66c0.33-0.65,0.62-1.33,0.87-2.04
		c0.25-0.71,0.45-1.44,0.58-2.18c0.13-0.75,0.17-1.43,0.12-2.06c-0.09-1-0.29-1.63-0.6-1.91c-0.31-0.27-0.67-0.39-1.07-0.36
		c-0.66,0.06-1.33,0.35-2.01,0.89c-0.69,0.54-1.37,1.21-2.04,2.04c-0.67,0.82-1.33,1.73-1.98,2.72c-0.64,0.99-1.24,1.97-1.79,2.94
		c-0.54,0.97-1.04,1.87-1.48,2.7c-0.44,0.83-0.82,1.49-1.12,1.97c-0.22,0.39-0.54,0.97-0.97,1.72c-0.42,0.75-0.89,1.62-1.41,2.58
		c-0.52,0.97-1.06,2.01-1.64,3.12c-0.58,1.11-1.14,2.23-1.71,3.36c-0.56,1.13-1.09,2.22-1.6,3.27c-0.51,1.05-0.96,2-1.34,2.83
		l-2.65,0.24c3.3-6.53,6.68-13.02,10.14-19.46c3.46-6.44,6.87-12.95,10.22-19.51L381.43,240.86z M373.84,264.55
		c0.43-0.04,0.89-0.22,1.39-0.56c0.5-0.33,0.98-0.72,1.45-1.16c0.46-0.44,0.88-0.88,1.24-1.32c0.36-0.43,0.62-0.76,0.78-0.97
		l-0.09-0.08c-0.48,0.13-1.07,0.28-1.79,0.44c-0.72,0.17-1.4,0.36-2.06,0.59c-0.66,0.23-1.2,0.52-1.65,0.86
		c-0.44,0.34-0.64,0.77-0.6,1.28c0.03,0.34,0.18,0.59,0.45,0.74C373.23,264.52,373.52,264.58,373.84,264.55z"/>
	<path d="M410.52,250.55c-0.62,0.83-1.33,1.51-2.15,2.04c-0.81,0.53-1.64,0.84-2.46,0.91c-0.8,0.07-1.5-0.04-2.1-0.35
		s-1.08-0.69-1.44-1.14l-0.08,0.01c-0.19,1.11-0.61,2.31-1.27,3.61c-0.66,1.29-1.48,2.5-2.46,3.62s-2.08,2.08-3.3,2.88
		c-1.22,0.8-2.5,1.26-3.84,1.38c-1.23,0.11-2.19-0.16-2.88-0.82c-0.69-0.66-1.09-1.58-1.2-2.78c-0.06-0.63,0.03-1.37,0.27-2.22
		c0.24-0.85,0.6-1.73,1.08-2.62c0.48-0.89,1.06-1.78,1.75-2.66c0.68-0.88,1.44-1.68,2.26-2.4c0.83-0.72,1.71-1.32,2.66-1.79
		c0.95-0.47,1.92-0.75,2.92-0.84c1.17-0.1,2.11,0.16,2.81,0.78c0.7,0.63,1.13,1.48,1.28,2.56c0.12,0.65,0.48,1.23,1.08,1.74
		c0.61,0.51,1.39,0.72,2.36,0.63c0.86-0.08,1.64-0.36,2.36-0.86c0.72-0.49,1.37-1.11,1.97-1.86L410.52,250.55z M389.75,260.72
		c0.07,0.74,0.26,1.31,0.58,1.72c0.32,0.4,0.77,0.58,1.34,0.53c0.77-0.07,1.51-0.34,2.23-0.82s1.4-1.09,2.04-1.82
		c0.64-0.73,1.22-1.55,1.74-2.46c0.52-0.91,0.96-1.84,1.32-2.79c0.36-0.95,0.63-1.87,0.81-2.77c0.18-0.89,0.24-1.7,0.17-2.41
		c-0.05-0.6-0.25-1.09-0.58-1.48c-0.34-0.39-0.82-0.55-1.44-0.5c-0.6,0.05-1.22,0.3-1.87,0.75c-0.65,0.45-1.3,1.01-1.94,1.7
		c-0.64,0.69-1.24,1.48-1.79,2.36c-0.55,0.88-1.04,1.79-1.46,2.72c-0.42,0.93-0.73,1.85-0.94,2.76
		C389.75,259.11,389.68,259.95,389.75,260.72z"/>
	<path d="M411.77,246.65l2.77-0.38c-1.07,1.82-1.96,3.34-2.66,4.55c-0.7,1.21-1.18,2.04-1.46,2.5l0.09,0.08
		c0.74-0.99,1.46-1.89,2.15-2.71c0.69-0.82,1.36-1.55,2.03-2.18c1.9-1.89,3.76-2.92,5.59-3.08c0.8-0.07,1.46,0.05,1.99,0.36
		c0.53,0.31,0.83,0.84,0.9,1.58c0.04,0.4-0.03,0.76-0.18,1.07c-0.16,0.32-0.38,0.59-0.66,0.81c-0.28,0.23-0.6,0.41-0.97,0.54
		c-0.36,0.13-0.71,0.21-1.06,0.25c0.19-0.42,0.34-0.86,0.44-1.31c0.1-0.45,0.14-0.88,0.1-1.28c-0.05-0.51-0.2-0.88-0.46-1.1
		c-0.26-0.22-0.6-0.31-0.99-0.28c-0.51,0.05-1.13,0.29-1.85,0.73c-0.72,0.44-1.62,1.21-2.7,2.31c-1.34,1.36-2.76,3.09-4.25,5.21
		c-1.49,2.12-2.87,4.62-4.14,7.52l-2.65,0.24L411.77,246.65z M429.49,248.69c-1.42,2.43-2.73,4.43-3.92,6.02
		c-1.2,1.59-2.29,2.85-3.28,3.78c-0.99,0.94-1.9,1.61-2.73,2.01s-1.58,0.64-2.27,0.7c-0.91,0.08-1.59-0.06-2.04-0.42
		c-0.45-0.36-0.71-0.91-0.77-1.66c-0.04-0.4,0.01-0.81,0.15-1.24c0.13-0.43,0.32-0.94,0.55-1.54c0.23-0.59,0.43-1.07,0.58-1.43
		c0.16-0.36,0.22-0.69,0.19-1.01c-0.03-0.29-0.15-0.46-0.37-0.53s-0.45-0.09-0.67-0.07c-0.26,0.02-0.53,0.08-0.83,0.16
		c-0.29,0.08-0.6,0.14-0.91,0.17c-0.4,0.04-0.62,0.01-0.67-0.09c-0.05-0.1-0.08-0.17-0.09-0.23c-0.02-0.26,0.24-0.41,0.78-0.46
		c0.09-0.01,0.23-0.01,0.43-0.02c0.2,0,0.42,0,0.65,0.01c0.23,0.01,0.49,0.01,0.78,0.02c0.29,0,0.55,0.02,0.78,0.06
		c1.17,0.24,1.8,0.9,1.9,1.99c0.04,0.46,0.02,0.9-0.08,1.34c-0.09,0.44-0.2,0.87-0.34,1.3c-0.13,0.43-0.25,0.83-0.34,1.22
		c-0.09,0.38-0.13,0.74-0.1,1.09c0.03,0.31,0.1,0.53,0.23,0.65c0.12,0.12,0.37,0.16,0.74,0.13c0.46-0.04,1.06-0.28,1.81-0.72
		c0.75-0.44,1.61-1.13,2.57-2.08c0.96-0.95,2.03-2.18,3.18-3.71c1.16-1.53,2.38-3.41,3.68-5.65L429.49,248.69z"/>
	<path d="M448.45,247.17c-0.62,0.83-1.33,1.51-2.15,2.04s-1.64,0.83-2.46,0.91c-0.8,0.07-1.5-0.04-2.1-0.35s-1.08-0.69-1.44-1.14
		l-0.08,0.01c-0.19,1.11-0.61,2.31-1.27,3.6c-0.66,1.29-1.48,2.5-2.46,3.62c-0.98,1.12-2.08,2.08-3.3,2.88
		c-1.22,0.8-2.5,1.26-3.84,1.38c-1.23,0.11-2.19-0.16-2.88-0.82c-0.69-0.66-1.09-1.58-1.2-2.78c-0.06-0.63,0.03-1.37,0.27-2.22
		c0.24-0.85,0.6-1.73,1.08-2.62c0.48-0.89,1.06-1.78,1.75-2.66c0.68-0.88,1.44-1.68,2.26-2.4c0.83-0.72,1.71-1.32,2.66-1.79
		s1.92-0.75,2.92-0.84c1.17-0.1,2.11,0.16,2.81,0.78c0.7,0.63,1.13,1.48,1.28,2.56c0.12,0.65,0.48,1.23,1.08,1.74
		c0.61,0.51,1.39,0.72,2.36,0.63c0.86-0.08,1.64-0.36,2.36-0.86c0.72-0.49,1.37-1.11,1.97-1.86L448.45,247.17z M427.68,257.34
		c0.07,0.74,0.26,1.31,0.58,1.71c0.32,0.4,0.77,0.58,1.34,0.53c0.77-0.07,1.51-0.34,2.23-0.82c0.72-0.48,1.4-1.09,2.04-1.82
		c0.64-0.73,1.22-1.55,1.74-2.46c0.52-0.91,0.96-1.84,1.32-2.79c0.36-0.95,0.63-1.87,0.81-2.77c0.18-0.89,0.24-1.7,0.17-2.41
		c-0.05-0.6-0.25-1.09-0.58-1.48c-0.34-0.39-0.82-0.55-1.44-0.5c-0.6,0.05-1.22,0.3-1.87,0.75c-0.65,0.45-1.3,1.01-1.94,1.7
		c-0.64,0.69-1.24,1.48-1.79,2.36c-0.55,0.88-1.04,1.79-1.46,2.72s-0.73,1.85-0.94,2.76C427.68,255.73,427.61,256.57,427.68,257.34z
		"/>
	<path d="M469.53,241.37c-0.83,1.37-1.58,2.62-2.25,3.76c-0.67,1.14-1.3,2.18-1.88,3.12c-1.17,1.97-1.99,3.51-2.45,4.62
		c-0.46,1.1-0.67,1.94-0.62,2.51c0.08,0.86,0.54,1.24,1.4,1.17c0.54-0.05,1.34-0.46,2.39-1.23c1.05-0.77,2.31-2.08,3.79-3.94
		c0.72-0.93,1.49-1.97,2.31-3.14c0.82-1.16,1.65-2.46,2.5-3.89l0.44,0.09c-1.72,2.91-3.35,5.31-4.88,7.2
		c-0.88,1.08-1.66,1.97-2.35,2.67c-0.69,0.69-1.31,1.24-1.88,1.63c-0.57,0.39-1.09,0.68-1.56,0.85c-0.47,0.17-0.92,0.28-1.35,0.31
		c-0.74,0.07-1.36-0.12-1.86-0.54s-0.78-1.01-0.85-1.76c-0.04-0.4-0.01-0.8,0.07-1.19c0.08-0.4,0.25-0.89,0.51-1.49l-0.09-0.04
		c-0.51,0.68-1.03,1.32-1.55,1.93c-0.52,0.61-1.06,1.17-1.62,1.67c-0.69,0.64-1.39,1.16-2.1,1.57s-1.44,0.64-2.18,0.71
		c-0.68,0.06-1.27-0.1-1.77-0.49c-0.49-0.39-0.78-0.98-0.85-1.78c-0.04-0.4,0.02-0.83,0.17-1.29c0.15-0.46,0.33-0.88,0.55-1.28
		l-0.09-0.04c-0.67,0.89-1.29,1.68-1.86,2.36c-0.57,0.68-1.12,1.26-1.66,1.72c-0.54,0.46-1.06,0.83-1.59,1.09
		c-0.52,0.26-1.05,0.42-1.6,0.46c-1,0.09-1.79-0.14-2.39-0.69c-0.31-0.29-0.56-0.64-0.74-1.05c-0.18-0.42-0.29-0.86-0.34-1.35
		c-0.07-0.77,0.09-1.46,0.46-2.07c0.38-0.61,0.88-0.94,1.51-1c0.48-0.04,0.86,0.06,1.13,0.31c0.27,0.25,0.42,0.56,0.45,0.93
		c0.08,0.91-0.33,1.41-1.25,1.49c-0.2,0.02-0.4-0.01-0.59-0.1s-0.33-0.22-0.4-0.42c-0.21,0.25-0.33,0.49-0.37,0.72
		c-0.04,0.23-0.05,0.44-0.03,0.61c0.02,0.26,0.1,0.53,0.22,0.82c0.13,0.29,0.3,0.54,0.52,0.75c0.47,0.42,1.04,0.6,1.73,0.54
		c1.31-0.12,2.68-0.97,4.1-2.56c1.42-1.59,3.08-3.94,4.95-7.04c0.58-0.91,1.16-1.86,1.73-2.85s1.2-2.05,1.87-3.21l2.9-0.39
		c-0.98,1.61-1.84,3.01-2.58,4.2c-0.74,1.19-1.39,2.25-1.94,3.19c-0.57,1-1.05,1.85-1.43,2.54c-0.38,0.7-0.68,1.29-0.9,1.78
		c-0.21,0.49-0.37,0.92-0.45,1.27c-0.08,0.35-0.11,0.67-0.09,0.96c0.04,0.4,0.18,0.69,0.44,0.87c0.26,0.18,0.56,0.25,0.9,0.22
		c0.57-0.05,1.17-0.28,1.79-0.68c0.62-0.4,1.29-0.96,2-1.69c0.61-0.63,1.23-1.35,1.88-2.17c0.64-0.82,1.31-1.72,2-2.7
		c0.82-1.17,1.61-2.46,2.37-3.9c0.76-1.43,1.54-2.92,2.32-4.45L469.53,241.37z"/>
	<path d="M474.88,252.53c0.43-0.04,0.81,0.09,1.15,0.37c0.34,0.29,0.53,0.64,0.57,1.07s-0.09,0.81-0.37,1.15
		c-0.29,0.34-0.64,0.53-1.07,0.57c-0.43,0.04-0.81-0.08-1.15-0.37c-0.34-0.29-0.53-0.64-0.57-1.07c-0.04-0.43,0.08-0.81,0.37-1.15
		C474.09,252.76,474.45,252.57,474.88,252.53z M476.88,249.38c1.15-2.29,2.27-4.57,3.38-6.85s2.01-4.65,2.71-7.09
		c0.37-1.3,0.72-2.19,1.05-2.68c0.33-0.49,0.78-0.76,1.35-0.81c0.4-0.04,0.75,0.08,1.04,0.34c0.3,0.26,0.46,0.59,0.5,0.99
		c0.05,0.57-0.11,1.12-0.48,1.66c-0.37,0.54-0.72,1.02-1.06,1.45c-1.54,2.09-2.99,4.23-4.37,6.4s-2.66,4.42-3.86,6.74L476.88,249.38
		z"/>
</g>
<path class="st0" d="M13.23,384.71l18.75-172.02c0.69-6.3,6.35-10.85,12.65-10.17l325.12,35.43c6.3,0.69,10.85,6.35,10.17,12.65
	l-18.75,172.02c-0.69,6.3-6.35,10.85-12.65,10.17L23.4,397.37C17.1,396.68,12.54,391.01,13.23,384.71z"/>
<polygon class="st1" points="344.38,245.77 320.75,278.01 360.51,282.34 "/>
<polygon class="st1" points="58.58,349.05 34.95,381.29 74.71,385.62 "/>
<circle class="st1" cx="482.89" cy="177.08" r="17.01"/>
<circle class="st2" cx="254.17" cy="35.56" r="5"/>
<circle class="st2" cx="281.83" cy="33.85" r="5"/>
<circle class="st2" cx="310.98" cy="33.16" r="5"/>
<g>
	<path d="M79.48,297.66c1.48,0.16,2.92-0.02,4.33-0.54c1.41-0.51,2.6-1.19,3.59-2.04c0.92-0.82,1.67-1.77,2.25-2.85
		c0.58-1.08,0.93-2.28,1.07-3.59c0.1-0.97,0.06-1.88-0.14-2.72c-0.2-0.84-0.57-1.56-1.11-2.16c-0.95-1.08-2.22-1.71-3.82-1.88
		c-1.31-0.14-2.61,0.01-3.91,0.46c-1.3,0.45-2.5,1.07-3.59,1.87c-1.03,0.78-1.86,1.69-2.49,2.75c-0.63,1.06-1,2.13-1.12,3.23
		c-0.15,1.38,0.05,2.52,0.58,3.43c0.54,0.91,1.4,1.43,2.6,1.56c1.34,0.14,2.79-0.37,4.35-1.53c1.22-0.92,2.24-2.25,3.06-4l0.55,0.11
		c-0.89,1.87-2.04,3.34-3.45,4.43c-1.69,1.25-3.37,1.78-5.05,1.6c-0.6-0.06-1.17-0.2-1.7-0.42c-0.54-0.22-0.99-0.52-1.35-0.9
		c-0.44-0.46-0.77-1.02-0.98-1.7c-0.22-0.67-0.29-1.38-0.21-2.13c0.14-1.32,0.67-2.62,1.58-3.92c0.91-1.3,2.16-2.44,3.73-3.45
		c1.39-0.87,2.79-1.43,4.2-1.69c1.41-0.26,2.93-0.31,4.55-0.13c0.88,0.09,1.74,0.31,2.56,0.65c0.83,0.34,1.51,0.78,2.06,1.31
		c0.68,0.64,1.17,1.44,1.47,2.39c0.3,0.95,0.4,1.94,0.29,2.97c-0.14,1.35-0.53,2.56-1.17,3.65c-0.63,1.09-1.46,2.03-2.48,2.82
		c-1.02,0.79-2.2,1.43-3.55,1.9c-1.35,0.47-2.8,0.75-4.36,0.84l-0.01,0.09c1.05,0.11,1.89,0.28,2.51,0.51
		c0.62,0.23,1.14,0.55,1.56,0.97c1.01,1.06,1.42,2.45,1.24,4.17c-0.18,1.72-0.83,3.34-1.94,4.85c-1.11,1.51-2.58,2.77-4.42,3.78
		c-1.41,0.77-3.01,1.33-4.82,1.67c-1.81,0.35-3.61,0.42-5.4,0.23c-1.17-0.12-2.2-0.39-3.11-0.81c-0.91-0.41-1.66-0.94-2.25-1.57
		c-0.6-0.63-1.04-1.35-1.32-2.16c-0.29-0.81-0.38-1.66-0.29-2.57c0.07-0.62,0.24-1.2,0.53-1.72c0.29-0.52,0.63-0.96,1.05-1.31
		c0.41-0.35,0.87-0.62,1.36-0.81c0.5-0.18,0.98-0.25,1.47-0.2c0.65,0.07,1.19,0.22,1.61,0.46c0.42,0.24,0.8,0.64,1.14,1.21
		l-0.06,0.18c-0.19-0.08-0.39-0.15-0.6-0.21c-0.21-0.05-0.43-0.09-0.66-0.12c-0.83-0.09-1.57,0.15-2.23,0.71
		c-0.66,0.56-1.07,1.5-1.21,2.82c-0.07,0.66-0.01,1.3,0.18,1.92c0.19,0.62,0.51,1.19,0.94,1.69c0.44,0.51,0.99,0.94,1.68,1.29
		c0.68,0.36,1.49,0.59,2.43,0.69c1.45,0.15,2.83,0.09,4.15-0.2c1.31-0.29,2.6-0.87,3.88-1.75c1.49-1.04,2.68-2.28,3.57-3.7
		c0.89-1.43,1.4-2.84,1.55-4.25c0.09-0.81,0.07-1.51-0.04-2.09c-0.11-0.58-0.3-1.11-0.56-1.58c-0.32-0.54-0.75-0.96-1.29-1.25
		c-0.54-0.3-1.14-0.48-1.8-0.55c-0.26-0.03-0.54-0.05-0.86-0.07c-0.31-0.02-0.59-0.01-0.82,0.03L79.48,297.66z"/>
	<path d="M120.54,293.59c0.25,0.63,0.33,1.35,0.24,2.16c-0.11,1.03-0.44,1.94-0.98,2.72c-0.54,0.78-1.21,1.44-2,1.97
		c-0.79,0.53-1.65,0.92-2.56,1.15c-0.92,0.23-1.8,0.31-2.66,0.22c-1.77-0.19-3.09-0.82-3.96-1.9c-0.88-1.07-1.24-2.3-1.1-3.68
		c0.16-1.53,0.71-2.87,1.64-4c0.93-1.14,2.13-2.08,3.61-2.85c1.48-0.76,3.17-1.36,5.09-1.78c1.92-0.43,3.96-0.73,6.12-0.89
		c2.16-0.16,4.39-0.21,6.69-0.14c2.29,0.07,4.54,0.22,6.73,0.46c0.77,0.08,1.42,0.04,1.96-0.12c0.54-0.16,1.04-0.22,1.53-0.17
		c0.14,0.02,0.28,0.06,0.42,0.14c0.13,0.08,0.19,0.21,0.17,0.4c-0.04,0.38-0.25,0.58-0.63,0.6c-0.38,0.02-0.94,0-1.67-0.08
		c-2.22-0.24-4.72,0.86-7.5,3.29c-2.78,2.43-5.94,6.25-9.49,11.48l6.15,0.66c0.77-0.99,1.65-2.08,2.66-3.25
		c1-1.18,2.09-2.35,3.27-3.52c1.18-1.17,2.41-2.28,3.7-3.33c1.29-1.05,2.61-1.96,3.96-2.74c1.35-0.77,2.69-1.37,4.03-1.78
		c1.34-0.41,2.63-0.55,3.89-0.42c0.6,0.06,1.13,0.32,1.6,0.76c0.47,0.45,0.67,1.01,0.59,1.7c-0.05,0.44-0.21,0.79-0.5,1.06
		c-0.29,0.27-0.63,0.38-1.03,0.34c-0.34-0.04-0.6-0.21-0.79-0.51c-0.18-0.31-0.36-0.63-0.52-0.98c-0.16-0.35-0.36-0.67-0.59-0.96
		c-0.23-0.29-0.55-0.46-0.98-0.51c-1-0.11-2.21,0.26-3.66,1.11c-1.44,0.84-2.96,2-4.56,3.46c-1.6,1.46-3.19,3.16-4.8,5.09
		c-1.6,1.94-3.07,3.93-4.39,5.99c-1.33,2.06-2.44,4.12-3.34,6.17c-0.9,2.06-1.44,3.95-1.62,5.67c-0.08,0.72-0.03,1.37,0.16,1.96
		c0.18,0.59,0.51,0.91,1,0.96c0.91,0.1,1.95-0.2,3.11-0.88c1.17-0.68,2.36-1.58,3.57-2.68c1.21-1.11,2.39-2.34,3.55-3.71
		c1.15-1.37,2.17-2.68,3.05-3.95l0.36,0.23c-0.34,0.53-0.82,1.2-1.42,2.01c-0.6,0.81-1.29,1.66-2.06,2.56
		c-0.77,0.9-1.61,1.79-2.51,2.68c-0.9,0.89-1.83,1.67-2.78,2.36c-0.95,0.69-1.9,1.23-2.83,1.62c-0.93,0.39-1.84,0.54-2.73,0.45
		c-0.65-0.07-1.2-0.25-1.63-0.53c-0.43-0.28-0.77-0.64-1.01-1.08c-0.24-0.44-0.4-0.93-0.47-1.47c-0.07-0.55-0.08-1.12-0.01-1.71
		c0.12-1.1,0.37-2.18,0.76-3.27c0.39-1.08,0.84-2.12,1.35-3.11c0.51-0.99,1.06-1.93,1.66-2.81c0.6-0.89,1.15-1.7,1.66-2.44
		l-6.15-0.66c-1.01,1.41-2.17,3-3.47,4.76c-1.29,1.76-2.71,3.38-4.23,4.87c-1.53,1.48-3.16,2.7-4.9,3.63
		c-1.74,0.94-3.55,1.31-5.43,1.11c-0.43-0.05-0.89-0.15-1.39-0.32c-0.5-0.16-0.96-0.39-1.37-0.69c-0.41-0.3-0.75-0.67-1-1.1
		c-0.26-0.44-0.35-0.96-0.29-1.55c0.06-0.53,0.27-0.95,0.65-1.26c0.38-0.31,0.81-0.44,1.29-0.38c0.43,0.05,0.75,0.22,0.98,0.53
		c0.23,0.31,0.31,0.68,0.27,1.12c-0.05,0.5-0.21,0.86-0.48,1.09c-0.27,0.23-0.6,0.32-1,0.27c0.09,0.48,0.39,0.88,0.89,1.19
		c0.5,0.31,1.08,0.5,1.73,0.56c0.91,0.1,1.81-0.06,2.71-0.47c0.89-0.41,1.77-0.98,2.64-1.71c0.87-0.73,1.73-1.6,2.59-2.62
		c0.86-1.02,1.69-2.07,2.5-3.15c0.81-1.08,1.6-2.19,2.38-3.31c0.78-1.12,1.53-2.16,2.23-3.13c1.21-1.64,2.44-3.29,3.68-4.95
		c1.24-1.66,2.56-3.17,3.96-4.54c1.4-1.37,2.93-2.54,4.6-3.5c1.67-0.96,3.54-1.58,5.62-1.87l0.01-0.09
		c-3.9-0.42-7.47-0.5-10.72-0.24c-3.25,0.26-6.07,0.79-8.46,1.61c-2.39,0.82-4.29,1.92-5.7,3.29c-1.41,1.37-2.22,2.96-2.41,4.78
		c-0.05,0.47-0.03,0.95,0.06,1.43c0.09,0.48,0.26,0.92,0.51,1.31c0.25,0.39,0.58,0.73,1.01,1.01c0.43,0.28,0.94,0.46,1.54,0.52
		c0.74,0.08,1.52,0.01,2.33-0.2c0.81-0.21,1.58-0.56,2.29-1.04c0.71-0.48,1.32-1.08,1.83-1.8c0.51-0.72,0.81-1.54,0.91-2.44
		c0.05-0.5,0.05-0.91,0-1.23c-0.05-0.32-0.13-0.65-0.24-0.98L120.54,293.59z"/>
	<path d="M159.02,310.94c-0.77,0.77-1.61,1.36-2.52,1.77c-0.91,0.41-1.77,0.57-2.6,0.48c-0.8-0.08-1.46-0.35-1.99-0.81
		c-0.53-0.45-0.92-0.96-1.18-1.53l-0.08-0.01c-0.41,1.16-1.07,2.37-1.98,3.63c-0.91,1.27-1.96,2.4-3.15,3.42
		c-1.19,1.01-2.46,1.83-3.82,2.44c-1.36,0.61-2.71,0.85-4.05,0.71c-1.22-0.13-2.11-0.62-2.65-1.47c-0.54-0.85-0.74-1.93-0.6-3.25
		c0.07-0.69,0.31-1.47,0.72-2.35c0.41-0.87,0.94-1.74,1.59-2.61c0.65-0.86,1.4-1.7,2.25-2.51s1.75-1.52,2.71-2.13
		c0.96-0.61,1.95-1.07,2.98-1.39c1.03-0.32,2.04-0.42,3.03-0.32c1.17,0.12,2.03,0.6,2.59,1.42c0.56,0.82,0.81,1.83,0.74,3.02
		c-0.02,0.73,0.22,1.42,0.71,2.09c0.49,0.67,1.22,1.06,2.19,1.16c0.85,0.09,1.68-0.06,2.49-0.45c0.8-0.39,1.57-0.92,2.31-1.61
		L159.02,310.94z M136.58,317.72c-0.09,0.81-0.01,1.47,0.22,1.97c0.23,0.5,0.64,0.78,1.21,0.84c0.77,0.08,1.55-0.06,2.36-0.44
		c0.8-0.37,1.59-0.89,2.37-1.55c0.78-0.66,1.51-1.43,2.21-2.31s1.32-1.79,1.87-2.75c0.55-0.96,1-1.9,1.36-2.82
		c0.36-0.93,0.58-1.78,0.66-2.57c0.07-0.66-0.02-1.23-0.27-1.71c-0.25-0.48-0.69-0.76-1.31-0.83c-0.6-0.06-1.26,0.08-1.99,0.43
		c-0.73,0.35-1.48,0.83-2.25,1.45c-0.77,0.61-1.52,1.34-2.24,2.18c-0.72,0.84-1.39,1.72-1.99,2.64c-0.6,0.92-1.1,1.85-1.48,2.79
		C136.91,315.98,136.67,316.87,136.58,317.72z"/>
	<path d="M158.13,312.75c-1.28,1.76-2.26,3.21-2.94,4.34c-0.68,1.13-1.06,2.09-1.15,2.87c-0.08,0.72,0.03,1.29,0.31,1.72
		c0.29,0.43,0.76,0.67,1.41,0.74c0.8,0.08,1.89-0.27,3.29-1.05c1.39-0.78,2.81-2.03,4.26-3.75c0.46-0.55,0.91-1.13,1.35-1.73
		c0.44-0.6,0.82-1.19,1.16-1.78c0.34-0.58,0.61-1.15,0.83-1.69c0.22-0.55,0.35-1.05,0.4-1.52c0.05-0.5,0.02-0.89-0.09-1.17
		c-0.12-0.28-0.14-0.67-0.09-1.17c0.06-0.53,0.22-0.89,0.48-1.09c0.26-0.19,0.54-0.27,0.82-0.24c0.48,0.05,0.84,0.36,1.07,0.92
		c0.23,0.56,0.29,1.34,0.18,2.35c-0.04,0.41-0.1,0.76-0.16,1.05c-0.06,0.29-0.14,0.61-0.23,0.95c0.14,0.27,0.47,0.64,0.98,1.1
		c0.51,0.47,1.22,0.75,2.13,0.85s1.73-0.07,2.45-0.5c0.72-0.43,1.34-0.93,1.87-1.51l0.26,0.36c-0.55,0.54-1.21,1.06-1.98,1.55
		c-0.77,0.49-1.67,0.68-2.69,0.57c-0.68-0.07-1.3-0.28-1.85-0.63c-0.55-0.34-1.02-0.74-1.41-1.19c-0.54,1.24-1.2,2.37-1.98,3.38
		s-1.68,1.93-2.69,2.78c-1.89,1.57-3.57,2.61-5.04,3.12c-1.46,0.51-2.77,0.7-3.9,0.58c-1-0.11-1.8-0.54-2.41-1.3
		c-0.58-0.73-0.82-1.67-0.69-2.83c0.06-0.56,0.28-1.23,0.64-2c0.37-0.77,0.81-1.55,1.31-2.35c0.5-0.8,1.02-1.59,1.55-2.35
		c0.53-0.77,0.99-1.41,1.4-1.94l7.61-10.25c0.87-1.14,1.79-2.19,2.75-3.15c0.97-0.96,2.13-1.89,3.49-2.79
		c1.21-0.82,2.38-1.4,3.51-1.74c1.13-0.34,2.15-0.46,3.06-0.36c0.97,0.1,1.6,0.33,1.89,0.68c0.29,0.35,0.41,0.84,0.34,1.46
		c-0.09,0.85-0.51,1.75-1.26,2.71c-0.75,0.96-1.78,1.96-3.1,2.99c-1.01,0.81-2.11,1.61-3.3,2.4c-1.19,0.79-2.4,1.55-3.63,2.27
		l-7.19,4.27L158.13,312.75z M167.95,304.11c1.08-0.65,2.19-1.41,3.33-2.28c1.14-0.88,2.14-1.77,2.99-2.7
		c0.85-0.92,1.55-1.85,2.11-2.79c0.56-0.94,0.88-1.81,0.97-2.63c0.05-0.47-0.01-0.81-0.17-1.02c-0.17-0.21-0.42-0.33-0.76-0.37
		c-0.54-0.06-1.16,0.11-1.87,0.49s-1.41,0.89-2.13,1.53c-0.72,0.64-1.41,1.35-2.09,2.15c-0.67,0.8-1.27,1.57-1.78,2.3l-6.74,8.97
		L167.95,304.11z"/>
	<path d="M181.8,309.05c-1.29,1.54-2.52,3.01-3.71,4.4s-2.24,2.67-3.17,3.84c-0.93,1.17-1.68,2.19-2.25,3.06
		c-0.57,0.87-0.88,1.58-0.94,2.11c-0.05,0.5,0.02,0.88,0.22,1.14c0.2,0.26,0.49,0.41,0.86,0.45c0.54,0.06,1.15-0.07,1.83-0.37
		c0.68-0.31,1.39-0.72,2.12-1.25c0.73-0.52,1.46-1.11,2.17-1.76c0.72-0.65,1.39-1.3,2.02-1.95c0.63-0.64,1.18-1.24,1.66-1.79
		c0.48-0.55,0.83-0.99,1.07-1.31l4.43-5.89l2.95,0.31c-1.78,2.15-3.3,3.98-4.53,5.48c-1.24,1.5-2.25,2.77-3.04,3.83
		c-0.79,1.06-1.36,1.92-1.72,2.59c-0.36,0.67-0.57,1.28-0.62,1.81c-0.04,0.38,0.02,0.71,0.2,0.99c0.17,0.29,0.44,0.45,0.81,0.49
		c0.57,0.06,1.25-0.1,2.04-0.47c0.79-0.38,1.62-0.89,2.5-1.54c0.88-0.65,1.75-1.4,2.63-2.24c0.88-0.84,1.72-1.68,2.51-2.51
		c0.79-0.83,1.52-1.62,2.17-2.36c0.65-0.74,1.17-1.34,1.53-1.81l0.41,0.19c-0.4,0.5-0.93,1.13-1.58,1.9
		c-0.66,0.77-1.39,1.58-2.2,2.42s-1.66,1.71-2.56,2.58c-0.9,0.87-1.81,1.64-2.73,2.3c-0.92,0.66-1.81,1.19-2.67,1.59
		c-0.86,0.4-1.65,0.56-2.36,0.48c-0.8-0.08-1.4-0.4-1.82-0.93c-0.42-0.54-0.58-1.21-0.5-2.02c0.07-0.63,0.22-1.22,0.47-1.78
		c0.25-0.56,0.42-0.91,0.52-1.06l-0.08-0.1c-0.68,0.69-1.38,1.34-2.11,1.96c-0.73,0.62-1.45,1.15-2.16,1.6
		c-0.71,0.45-1.42,0.79-2.12,1.03c-0.7,0.24-1.38,0.33-2.04,0.26c-0.91-0.1-1.54-0.4-1.89-0.89c-0.35-0.5-0.49-1.06-0.42-1.68
		c0.08-0.78,0.37-1.61,0.85-2.47s1.12-1.83,1.93-2.88c0.8-1.05,1.76-2.23,2.86-3.54c1.1-1.31,2.32-2.81,3.65-4.5L181.8,309.05z"/>
	<path d="M217.57,312.87c-1.09,1.31-2.08,2.51-2.97,3.6c-0.89,1.09-1.72,2.09-2.48,2.99c-1.55,1.89-2.67,3.39-3.35,4.49
		c-0.68,1.1-1.05,1.96-1.12,2.59c-0.1,0.94,0.28,1.45,1.13,1.55c0.54,0.06,1.41-0.22,2.59-0.84c1.19-0.62,2.69-1.78,4.52-3.48
		c0.9-0.85,1.86-1.83,2.9-2.92s2.12-2.32,3.24-3.69l0.41,0.19c-2.28,2.8-4.37,5.06-6.25,6.79c-1.08,0.99-2.03,1.79-2.85,2.4
		c-0.81,0.61-1.54,1.07-2.18,1.38s-1.21,0.51-1.7,0.6c-0.5,0.09-0.96,0.11-1.39,0.07c-0.74-0.08-1.31-0.4-1.71-0.97
		c-0.4-0.57-0.56-1.25-0.47-2.07c0.05-0.44,0.15-0.86,0.31-1.27c0.16-0.41,0.43-0.91,0.81-1.51l-0.08-0.06
		c-0.64,0.63-1.28,1.22-1.92,1.77c-0.64,0.55-1.28,1.04-1.93,1.48c-0.81,0.55-1.6,0.97-2.38,1.27c-0.78,0.3-1.54,0.41-2.28,0.33
		c-0.68-0.07-1.23-0.37-1.63-0.89c-0.4-0.52-0.56-1.22-0.47-2.09c0.05-0.44,0.19-0.89,0.43-1.36c0.24-0.46,0.5-0.89,0.8-1.27
		l-0.08-0.06c-0.84,0.83-1.61,1.56-2.3,2.18c-0.7,0.62-1.36,1.13-1.98,1.52s-1.21,0.68-1.78,0.85c-0.57,0.18-1.12,0.24-1.66,0.18
		c-1-0.11-1.73-0.52-2.2-1.23c-0.25-0.37-0.42-0.8-0.51-1.29c-0.09-0.48-0.11-0.99-0.05-1.53c0.09-0.85,0.38-1.56,0.88-2.14
		c0.49-0.58,1.05-0.84,1.68-0.77c0.48,0.05,0.83,0.24,1.04,0.56c0.21,0.32,0.29,0.69,0.25,1.1c-0.11,1-0.62,1.45-1.53,1.36
		c-0.2-0.02-0.38-0.1-0.56-0.23c-0.17-0.13-0.28-0.31-0.31-0.53c-0.25,0.23-0.42,0.46-0.51,0.71c-0.08,0.25-0.13,0.46-0.16,0.65
		c-0.03,0.28-0.01,0.59,0.05,0.93c0.06,0.34,0.18,0.65,0.36,0.92c0.37,0.55,0.9,0.86,1.58,0.93c1.31,0.14,2.82-0.51,4.55-1.94
		c1.72-1.43,3.82-3.63,6.29-6.6c0.75-0.87,1.51-1.78,2.28-2.73c0.76-0.95,1.59-1.97,2.49-3.08l2.92,0.17
		c-1.29,1.54-2.42,2.88-3.38,4.01c-0.97,1.13-1.82,2.15-2.55,3.05c-0.77,0.96-1.41,1.78-1.92,2.45s-0.93,1.25-1.24,1.74
		c-0.31,0.49-0.54,0.92-0.7,1.28c-0.15,0.36-0.25,0.7-0.28,1.02c-0.05,0.44,0.04,0.78,0.26,1.02c0.22,0.25,0.5,0.39,0.84,0.42
		c0.57,0.06,1.2-0.06,1.9-0.37c0.69-0.31,1.46-0.78,2.31-1.42c0.72-0.56,1.48-1.21,2.28-1.96c0.8-0.75,1.64-1.59,2.51-2.51
		c1.04-1.09,2.08-2.33,3.12-3.73c1.04-1.39,2.1-2.84,3.18-4.34L217.57,312.87z"/>
	<path d="M244.24,306.5c-1.78,2.38-3.61,4.7-5.49,6.97c-1.88,2.27-3.7,4.61-5.45,7.02l0.08,0.1c0.49-0.58,1.06-1.21,1.71-1.88
		c0.65-0.67,1.33-1.3,2.06-1.87c0.72-0.57,1.49-1.03,2.31-1.37c0.81-0.34,1.62-0.47,2.42-0.38c0.91,0.1,1.65,0.45,2.22,1.04
		c0.57,0.6,0.78,1.56,0.64,2.87c-0.09,0.81-0.27,1.58-0.55,2.29c-0.28,0.72-0.61,1.38-1.01,1.98c-0.4,0.61-0.83,1.16-1.3,1.67
		c-0.47,0.5-0.94,0.97-1.42,1.39l0.08,0.1c2.09-0.19,4.03-0.76,5.82-1.71c1.79-0.95,3.62-2.46,5.51-4.54l0.32,0.22
		c-1.46,1.59-2.8,2.8-4.02,3.66c-1.21,0.85-2.32,1.47-3.31,1.86c-0.99,0.39-1.9,0.63-2.71,0.73c-0.82,0.1-1.59,0.21-2.32,0.32
		c-0.53,0.36-1.13,0.78-1.8,1.28c-0.67,0.5-1.38,0.97-2.11,1.41c-0.74,0.44-1.5,0.81-2.27,1.09c-0.78,0.28-1.55,0.38-2.32,0.3
		c-0.4-0.04-0.78-0.2-1.14-0.48c-0.36-0.28-0.51-0.68-0.45-1.21c0.07-0.66,0.42-1.17,1.05-1.55c0.63-0.38,1.38-0.65,2.25-0.83
		c0.87-0.18,1.76-0.29,2.69-0.33c0.93-0.04,1.7-0.06,2.34-0.06c0.42-0.43,0.86-0.96,1.31-1.59c0.46-0.63,0.88-1.31,1.27-2.02
		c0.39-0.72,0.73-1.47,1.02-2.24c0.28-0.78,0.46-1.51,0.54-2.2c0.12-1.1,0.05-1.82-0.2-2.18c-0.25-0.36-0.57-0.56-0.97-0.6
		c-0.66-0.07-1.37,0.11-2.15,0.55c-0.78,0.44-1.59,1.03-2.41,1.78c-0.83,0.75-1.66,1.6-2.49,2.54c-0.83,0.94-1.62,1.88-2.35,2.81
		c-0.73,0.94-1.4,1.81-2,2.61c-0.6,0.81-1.1,1.44-1.5,1.91c-0.3,0.38-0.73,0.94-1.3,1.67c-0.57,0.73-1.2,1.57-1.91,2.5
		c-0.7,0.94-1.45,1.95-2.25,3.04c-0.79,1.09-1.58,2.18-2.36,3.29c-0.78,1.1-1.53,2.17-2.24,3.2c-0.72,1.03-1.35,1.96-1.9,2.79
		l-2.65-0.28c4.57-6.38,9.21-12.71,13.92-18.96c4.71-6.26,9.38-12.59,14.01-19L244.24,306.5z M231.96,330.55
		c0.43,0.05,0.92-0.06,1.48-0.32c0.56-0.26,1.11-0.58,1.66-0.96c0.54-0.39,1.04-0.78,1.48-1.17c0.45-0.4,0.77-0.69,0.96-0.9
		l-0.08-0.1c-0.49,0.04-1.11,0.08-1.85,0.11c-0.74,0.03-1.45,0.11-2.14,0.22c-0.69,0.12-1.29,0.31-1.79,0.59
		c-0.51,0.28-0.79,0.7-0.85,1.26c-0.04,0.38,0.06,0.67,0.29,0.89C231.38,330.39,231.65,330.52,231.96,330.55z"/>
	<path d="M270.78,322.86c-0.77,0.77-1.61,1.36-2.52,1.77c-0.91,0.41-1.77,0.57-2.6,0.48c-0.8-0.08-1.46-0.35-1.99-0.81
		c-0.53-0.45-0.92-0.96-1.18-1.53l-0.08-0.01c-0.41,1.16-1.07,2.37-1.98,3.63c-0.91,1.27-1.96,2.4-3.15,3.42
		c-1.19,1.01-2.46,1.83-3.82,2.44c-1.36,0.61-2.71,0.85-4.05,0.71c-1.22-0.13-2.11-0.62-2.65-1.47c-0.54-0.85-0.74-1.93-0.6-3.25
		c0.07-0.69,0.31-1.47,0.72-2.35c0.41-0.87,0.94-1.74,1.59-2.61c0.65-0.86,1.4-1.7,2.25-2.51c0.85-0.81,1.75-1.52,2.71-2.13
		c0.96-0.61,1.95-1.07,2.98-1.39c1.03-0.32,2.04-0.42,3.03-0.32c1.17,0.12,2.03,0.6,2.59,1.42c0.56,0.82,0.81,1.83,0.74,3.02
		c-0.02,0.73,0.22,1.42,0.71,2.09c0.49,0.67,1.22,1.06,2.19,1.16c0.85,0.09,1.68-0.06,2.49-0.45c0.8-0.39,1.57-0.92,2.31-1.61
		L270.78,322.86z M248.34,329.64c-0.09,0.81-0.01,1.47,0.22,1.97c0.23,0.5,0.64,0.78,1.21,0.84c0.77,0.08,1.55-0.06,2.36-0.44
		c0.8-0.37,1.59-0.89,2.37-1.55c0.78-0.66,1.51-1.43,2.21-2.31c0.7-0.88,1.32-1.79,1.87-2.75c0.55-0.95,1-1.9,1.36-2.82
		c0.36-0.93,0.58-1.78,0.66-2.57c0.07-0.66-0.02-1.23-0.27-1.71c-0.25-0.48-0.69-0.76-1.31-0.83c-0.6-0.06-1.26,0.08-1.99,0.43
		c-0.73,0.35-1.48,0.83-2.25,1.45c-0.77,0.61-1.52,1.34-2.24,2.18c-0.72,0.84-1.39,1.72-1.99,2.64c-0.6,0.92-1.1,1.85-1.48,2.79
		C248.67,327.9,248.43,328.79,248.34,329.64z"/>
	<path d="M272.8,318.9l2.79,0.15c-1.42,1.75-2.6,3.21-3.53,4.37c-0.93,1.17-1.58,1.97-1.94,2.41l0.08,0.1
		c0.93-0.91,1.82-1.74,2.66-2.49c0.84-0.75,1.65-1.4,2.43-1.95c2.25-1.66,4.28-2.39,6.11-2.2c0.8,0.08,1.42,0.35,1.88,0.79
		c0.46,0.45,0.64,1.07,0.55,1.89c-0.05,0.44-0.18,0.81-0.4,1.12c-0.22,0.31-0.49,0.56-0.81,0.74c-0.32,0.19-0.67,0.32-1.06,0.39
		c-0.38,0.07-0.74,0.09-1.08,0.05c0.27-0.41,0.51-0.86,0.7-1.33c0.19-0.47,0.31-0.92,0.36-1.36c0.06-0.56-0.02-0.99-0.23-1.28
		c-0.21-0.29-0.52-0.46-0.92-0.5c-0.51-0.05-1.17,0.08-1.97,0.41c-0.8,0.33-1.84,0.98-3.12,1.95c-1.6,1.19-3.34,2.78-5.24,4.76
		c-1.9,1.98-3.76,4.41-5.59,7.29l-2.65-0.28L272.8,318.9z M289.75,324.7c-1.89,2.33-3.58,4.23-5.08,5.7
		c-1.5,1.47-2.83,2.61-3.99,3.42c-1.17,0.81-2.19,1.35-3.09,1.62c-0.89,0.27-1.68,0.37-2.36,0.29c-0.91-0.1-1.55-0.39-1.92-0.87
		c-0.37-0.48-0.5-1.13-0.42-1.94c0.05-0.44,0.18-0.88,0.4-1.31c0.22-0.44,0.5-0.95,0.86-1.55c0.35-0.6,0.64-1.07,0.86-1.43
		c0.22-0.36,0.36-0.71,0.39-1.05c0.03-0.31-0.05-0.53-0.26-0.64c-0.2-0.12-0.42-0.19-0.65-0.21c-0.26-0.03-0.54-0.02-0.84,0.01
		c-0.31,0.03-0.61,0.03-0.93,0c-0.4-0.04-0.61-0.12-0.64-0.23c-0.03-0.11-0.04-0.2-0.04-0.27c0.03-0.28,0.31-0.39,0.86-0.34
		c0.09,0.01,0.23,0.03,0.42,0.07c0.2,0.04,0.41,0.08,0.63,0.14c0.23,0.06,0.48,0.11,0.76,0.18c0.28,0.06,0.53,0.14,0.75,0.22
		c1.1,0.5,1.58,1.34,1.46,2.53c-0.05,0.5-0.17,0.98-0.35,1.44c-0.18,0.46-0.38,0.9-0.6,1.34c-0.22,0.44-0.41,0.85-0.58,1.24
		c-0.17,0.39-0.28,0.78-0.32,1.15c-0.04,0.34-0.01,0.59,0.09,0.75c0.1,0.15,0.33,0.25,0.7,0.29c0.46,0.05,1.1-0.09,1.92-0.41
		c0.83-0.32,1.81-0.9,2.95-1.73c1.14-0.83,2.43-1.95,3.88-3.36c1.45-1.41,3.03-3.2,4.76-5.36L289.75,324.7z"/>
	<path d="M308.64,326.9c-0.77,0.77-1.61,1.36-2.52,1.77c-0.91,0.41-1.77,0.57-2.6,0.48c-0.8-0.09-1.46-0.35-1.99-0.81
		c-0.53-0.45-0.92-0.96-1.18-1.53l-0.08-0.01c-0.41,1.16-1.07,2.37-1.98,3.63c-0.91,1.27-1.96,2.4-3.15,3.42
		c-1.19,1.01-2.46,1.83-3.82,2.44c-1.36,0.62-2.71,0.85-4.05,0.71c-1.22-0.13-2.11-0.62-2.65-1.47c-0.54-0.85-0.74-1.93-0.6-3.25
		c0.07-0.69,0.31-1.47,0.72-2.34c0.41-0.88,0.94-1.74,1.59-2.61c0.65-0.86,1.4-1.7,2.25-2.51s1.75-1.52,2.71-2.13
		c0.96-0.61,1.95-1.07,2.98-1.39c1.03-0.32,2.04-0.42,3.03-0.32c1.17,0.12,2.03,0.6,2.59,1.42c0.56,0.82,0.81,1.83,0.74,3.02
		c-0.02,0.73,0.22,1.42,0.71,2.09c0.49,0.67,1.22,1.06,2.19,1.16c0.85,0.09,1.68-0.06,2.49-0.45c0.8-0.39,1.57-0.92,2.31-1.61
		L308.64,326.9z M286.21,333.67c-0.09,0.81-0.01,1.47,0.22,1.97c0.23,0.5,0.64,0.78,1.21,0.84c0.77,0.08,1.55-0.06,2.36-0.44
		c0.8-0.37,1.59-0.89,2.37-1.55c0.78-0.66,1.51-1.43,2.21-2.3c0.7-0.88,1.32-1.79,1.87-2.75c0.55-0.96,1-1.9,1.36-2.82
		c0.36-0.93,0.58-1.78,0.66-2.57c0.07-0.66-0.02-1.23-0.27-1.71c-0.25-0.48-0.69-0.76-1.31-0.83c-0.6-0.06-1.26,0.08-1.99,0.43
		c-0.73,0.35-1.48,0.83-2.25,1.45c-0.77,0.61-1.52,1.34-2.24,2.18c-0.72,0.84-1.39,1.72-1.99,2.64c-0.6,0.92-1.1,1.85-1.48,2.79
		C286.53,331.94,286.3,332.83,286.21,333.67z"/>
	<path d="M330.49,324.91c-1.09,1.31-2.08,2.51-2.97,3.6c-0.89,1.09-1.72,2.09-2.48,2.99c-1.56,1.89-2.67,3.39-3.35,4.49
		c-0.68,1.1-1.05,1.96-1.12,2.59c-0.1,0.94,0.28,1.45,1.13,1.55c0.54,0.06,1.41-0.22,2.59-0.84c1.19-0.62,2.69-1.78,4.52-3.48
		c0.9-0.85,1.86-1.83,2.9-2.92c1.04-1.09,2.12-2.32,3.24-3.69l0.41,0.19c-2.29,2.8-4.37,5.06-6.25,6.79
		c-1.08,0.99-2.03,1.79-2.85,2.4c-0.81,0.61-1.54,1.07-2.18,1.38c-0.64,0.31-1.21,0.51-1.7,0.6c-0.5,0.09-0.96,0.11-1.39,0.07
		c-0.74-0.08-1.31-0.4-1.71-0.97c-0.4-0.56-0.56-1.25-0.47-2.07c0.05-0.44,0.15-0.86,0.31-1.27c0.16-0.41,0.43-0.91,0.81-1.51
		l-0.08-0.06c-0.64,0.63-1.28,1.22-1.92,1.77c-0.63,0.55-1.28,1.04-1.93,1.48c-0.81,0.55-1.6,0.97-2.38,1.27
		c-0.78,0.3-1.54,0.41-2.28,0.33c-0.68-0.07-1.23-0.37-1.63-0.89c-0.4-0.52-0.56-1.22-0.47-2.09c0.05-0.44,0.19-0.89,0.43-1.36
		c0.24-0.47,0.5-0.89,0.81-1.27l-0.08-0.06c-0.84,0.83-1.61,1.56-2.3,2.18c-0.7,0.62-1.36,1.13-1.98,1.52
		c-0.62,0.39-1.21,0.68-1.78,0.85c-0.57,0.18-1.12,0.24-1.66,0.18c-1-0.11-1.73-0.52-2.2-1.23c-0.25-0.37-0.42-0.8-0.51-1.29
		c-0.09-0.48-0.11-0.99-0.05-1.52c0.09-0.85,0.38-1.56,0.88-2.14c0.49-0.58,1.05-0.84,1.68-0.77c0.48,0.05,0.83,0.24,1.04,0.56
		c0.21,0.32,0.29,0.69,0.25,1.1c-0.11,1-0.62,1.45-1.53,1.36c-0.2-0.02-0.38-0.1-0.56-0.23c-0.17-0.13-0.28-0.31-0.31-0.53
		c-0.25,0.23-0.42,0.46-0.51,0.71c-0.08,0.24-0.13,0.46-0.16,0.65c-0.03,0.28-0.01,0.59,0.05,0.93c0.06,0.34,0.18,0.65,0.36,0.92
		c0.37,0.55,0.9,0.86,1.58,0.93c1.31,0.14,2.82-0.51,4.55-1.94c1.72-1.43,3.82-3.63,6.29-6.6c0.75-0.87,1.51-1.78,2.28-2.73
		c0.76-0.95,1.59-1.97,2.49-3.08l2.92,0.17c-1.29,1.54-2.42,2.88-3.38,4.01c-0.97,1.13-1.82,2.15-2.55,3.05
		c-0.76,0.96-1.41,1.78-1.92,2.46s-0.93,1.25-1.24,1.74c-0.31,0.49-0.54,0.92-0.7,1.28c-0.15,0.36-0.25,0.7-0.28,1.01
		c-0.05,0.44,0.04,0.78,0.26,1.02c0.22,0.25,0.5,0.39,0.84,0.42c0.57,0.06,1.2-0.06,1.9-0.37c0.69-0.31,1.46-0.78,2.31-1.42
		c0.72-0.56,1.48-1.21,2.28-1.96c0.8-0.75,1.64-1.59,2.51-2.51c1.04-1.09,2.08-2.33,3.12-3.73c1.04-1.39,2.1-2.84,3.18-4.34
		L330.49,324.91z"/>
	<path d="M333.45,338.05c0.43,0.05,0.78,0.26,1.06,0.63c0.28,0.38,0.39,0.8,0.34,1.27c-0.05,0.47-0.25,0.86-0.6,1.17
		c-0.35,0.31-0.74,0.44-1.17,0.4c-0.43-0.05-0.78-0.26-1.05-0.64c-0.28-0.38-0.39-0.8-0.34-1.27c0.05-0.47,0.25-0.86,0.6-1.17
		C332.63,338.14,333.02,338,333.45,338.05z M336.06,335.05c1.59-2.24,3.16-4.48,4.71-6.72c1.55-2.24,2.92-4.61,4.1-7.11
		c0.63-1.33,1.16-2.22,1.58-2.68c0.42-0.46,0.92-0.66,1.49-0.6c0.4,0.04,0.72,0.23,0.95,0.58c0.24,0.34,0.33,0.73,0.29,1.17
		c-0.07,0.63-0.34,1.19-0.81,1.69c-0.47,0.5-0.92,0.96-1.33,1.35c-1.94,1.95-3.8,3.96-5.59,6.03c-1.79,2.07-3.51,4.24-5.16,6.5
		L336.06,335.05z"/>
</g>
</svg>
